<svg xmlns="http://www.w3.org/2000/svg" xmlns:xlink="http://www.w3.org/1999/xlink" width="500" zoomAndPan="magnify" viewBox="0 0 375 374.999991" height="500" preserveAspectRatio="xMidYMid meet" version="1.0"><defs><g/><clipPath id="id1"><path d="M 37.5 0 L 321 0 L 321 302 L 37.5 302 Z M 37.5 0 " clip-rule="nonzero"/></clipPath></defs><g clip-path="url(#id1)"><path fill="#025492" d="M 153.101562 222.292969 C 159.097656 226.832031 165.53125 234.15625 157.050781 253.191406 C 148.566406 272.226562 149.152344 292.433594 172.554688 299.902344 C 195.953125 307.371094 208.679688 284.378906 208.679688 284.378906 C 197.269531 284.964844 183.816406 282.625 177.671875 265.929688 C 171.53125 249.238281 182.0625 238.109375 168.898438 228.152344 C 175.917969 230.785156 180.011719 238.402344 180.742188 250.699219 C 181.472656 263 187.324219 276.328125 205.460938 279.253906 C 223.597656 282.183594 242.609375 288.917969 241.585938 301.953125 C 245.828125 290.53125 246.121094 277.644531 236.464844 265.785156 C 229.300781 271.054688 211.164062 268.710938 202.828125 255.09375 C 194.492188 241.476562 192.296875 232.25 183.375 226.832031 C 193.46875 230.640625 200.046875 240.453125 205.316406 247.625 C 210.578125 254.800781 216.136719 260.511719 230.324219 260.21875 C 221.109375 256.414062 208.824219 242.941406 209.265625 225.660156 C 194.785156 217.753906 168.898438 216.582031 153.101562 222.292969 Z M 116.246094 258.023438 C 109.753906 279.625 125.753906 291.847656 140.960938 298.292969 C 126.628906 290.238281 122.828125 271.789062 127.507812 261.828125 C 132.1875 251.871094 135.550781 244.109375 135.695312 239.132812 C 135.695312 239.132812 139.058594 243.964844 134.964844 257.4375 C 130.871094 270.90625 132.332031 283.648438 142.132812 291.261719 C 136.136719 281.011719 136.574219 268.710938 148.277344 253.921875 C 159.976562 239.132812 154.859375 230.785156 150.46875 226.394531 C 151.933594 237.667969 142.277344 234.007812 137.304688 226.832031 C 132.332031 219.660156 123.265625 220.097656 116.828125 222.441406 C 135.550781 223.757812 121.65625 240.011719 116.246094 258.023438 Z M 263.316406 17.3125 C 266.792969 28.789062 274.367188 83.902344 219.519531 121.605469 C 239.167969 113.613281 275.800781 83.699219 286.03125 50.503906 C 284.804688 39.851562 266.589844 19.976562 263.316406 17.3125 Z M 200.691406 142.09375 C 209.902344 144.554688 257.378906 164.015625 277.4375 219.132812 C 274.777344 203.355469 285.417969 191.472656 293.195312 209.300781 C 300.972656 227.125 300.5625 240.648438 320.410156 245.972656 C 310.386719 236.960938 307.3125 224.460938 308.75 208.070312 C 310.179688 191.675781 305.269531 171.394531 290.941406 165.65625 C 295.445312 171.191406 297.902344 176.3125 292.785156 176.722656 C 287.667969 177.128906 276.617188 158.484375 293.605469 158.484375 C 283.574219 150.699219 244.488281 141.273438 218.703125 142.09375 C 250.832031 149.265625 280.300781 168.117188 280.300781 179.589844 C 280.300781 191.066406 263.109375 173.238281 251.445312 165.453125 C 239.78125 157.667969 217.066406 145.167969 200.691406 142.09375 Z M 263.109375 138.199219 C 280.078125 144.570312 306.703125 142.09375 310.179688 134.511719 C 279.074219 145.578125 266.589844 118.734375 278.050781 114.433594 C 289.511719 110.128906 306.085938 117.917969 308.335938 125.703125 C 338.832031 92.511719 304.246094 40.878906 292.785156 33.292969 C 309.15625 85.542969 217.066406 132.257812 209.082031 135.332031 C 221.773438 130.824219 245.101562 131.441406 263.109375 138.199219 Z M 141.140625 78.167969 C 162.425781 76.324219 173.269531 64.847656 174.085938 55.628906 C 172.042969 61.160156 161.605469 68.128906 159.96875 60.957031 C 158.328125 53.785156 164.46875 51.121094 187.800781 46.410156 C 211.128906 41.695312 223.820312 26.535156 223.410156 13.828125 C 218.089844 24.28125 198.851562 32.476562 180.839844 35.550781 C 162.832031 38.621094 144.003906 43.335938 141.957031 53.992188 C 141.957031 53.992188 150.757812 49.6875 150.757812 58.90625 C 150.757812 68.128906 132.339844 71.40625 130.5 61.570312 C 128.65625 51.734375 136.023438 43.128906 152.804688 34.523438 C 169.585938 25.917969 176.339844 15.46875 172.863281 7.480469 C 172.65625 16.082031 160.992188 21.410156 135.207031 33.292969 C 109.421875 45.179688 99.1875 81.648438 102.871094 95.378906 C 105.324219 88.410156 119.855469 80.011719 141.140625 78.167969 Z M 183.910156 56.242188 C 197.214844 63.414062 215.835938 109.722656 190.667969 137.996094 C 210.515625 127.34375 246.535156 95.992188 256.972656 44.152344 C 250.832031 56.652344 240.1875 71.40625 225.25 71.40625 C 210.3125 71.40625 222.796875 50.503906 232.003906 46.613281 C 241.214844 42.71875 243.671875 52.144531 234.664062 58.90625 C 248.375 52.964844 262.292969 24.894531 246.125 -4.609375 C 247.355469 4.40625 228.933594 52.351562 183.910156 56.242188 Z M 197.417969 97.839844 C 193.9375 107.875 184.730469 136.152344 152.191406 144.144531 C 171.019531 143.324219 264.339844 179.382812 260.039062 265.234375 C 268.023438 254.785156 273.957031 236.960938 271.296875 223.4375 C 261.269531 197.003906 226.070312 159.101562 179.410156 138.609375 C 192.710938 127.75 197.828125 109.105469 197.417969 97.839844 Z M 147.105469 151.429688 C 156.941406 155.789062 170.152344 167.042969 174.503906 184.910156 C 178.859375 202.777344 187.152344 215.160156 206.824219 217.128906 C 198.253906 213.46875 182.65625 196.445312 187.433594 177.597656 C 185.464844 174.359375 174.785156 162.964844 171.136719 160.996094 C 195.300781 170.703125 211.871094 189.957031 208.085938 195.320312 C 204.714844 200.101562 196.003906 191.382812 194.597656 187.023438 C 192.773438 195.039062 204.605469 209.359375 217.222656 221.910156 C 239 243.574219 250.664062 277.480469 250.664062 288.734375 C 253.613281 275.789062 257.269531 229.507812 236.050781 209.109375 C 239.421875 215.015625 240.6875 221.207031 236.472656 223.457031 C 232.257812 225.707031 226.355469 216.703125 221.296875 201.792969 C 216.238281 186.878906 198.816406 158.460938 147.105469 151.429688 Z M 119.566406 209.109375 C 121.953125 211.921875 114.507812 215.859375 112.398438 219.519531 C 112.398438 219.519531 122.234375 212.34375 139.941406 213.328125 C 157.644531 214.3125 174.226562 209.8125 176.753906 205.589844 C 171.835938 204.324219 168.886719 199.121094 167.902344 189.132812 C 166.917969 179.140625 160.59375 163.808594 145.421875 160.292969 C 174.226562 178.722656 155.117188 203.199219 137.128906 204.886719 C 125.097656 206.015625 125.46875 201.371094 126.871094 199.121094 C 95.820312 207.558594 97.644531 231.898438 97.644531 240.902344 C 99.753906 215.015625 117.175781 206.292969 119.566406 209.109375 Z M 77.832031 199.820312 C 78.253906 205.308594 81.207031 225.144531 92.871094 236.964844 C 86.828125 227.675781 84.296875 207.839844 85.703125 199.820312 C 94.554688 199.402344 102.003906 190.539062 101.441406 182.378906 C 100.316406 200.808594 73.339844 191.523438 72.632812 189.410156 C 73.058594 192.226562 74.320312 194.617188 77.832031 199.820312 Z M 37.644531 155.507812 C 38.492188 161.417969 48.890625 172.109375 56.054688 178.015625 C 56.195312 181.253906 58.722656 192.367188 64.625 195.601562 C 58.023438 169.4375 92.589844 169.859375 95.539062 171.828125 C 90.058594 160.574219 71.230469 166.339844 65.1875 168.875 C 59.144531 171.40625 55.492188 168.03125 54.648438 166.90625 C 53.804688 165.777344 51.277344 161.839844 47.0625 158.460938 C 42.847656 155.085938 43.128906 152.414062 46.078125 146.503906 C 46.078125 146.503906 40.457031 148.472656 37.644531 155.507812 Z M 79.238281 120.339844 C 79.238281 120.339844 74.742188 115.835938 76.148438 109.789062 C 81.207031 111.054688 95.820312 105.285156 106.5 97.265625 C 117.175781 89.246094 128.417969 89.671875 131.511719 90.234375 C 134.601562 90.796875 140.191406 92.070312 142.328125 89.953125 C 154.695312 77.710938 183.21875 70.539062 190.585938 72.835938 C 194.597656 113.304688 165.472656 133.777344 157.554688 133.777344 C 180.988281 120.480469 180.347656 96.140625 179.789062 84.925781 C 176.828125 84.125 166.589844 88.773438 158.433594 94.777344 C 150.273438 100.785156 134.117188 105.746094 129.636719 106.46875 C 136.355469 97.578125 126.597656 97.339844 120.277344 106.226562 C 114.875 113.828125 107.640625 117.519531 101.960938 119.042969 C 106.601562 122.246094 115 119.84375 118.707031 118.265625 C 118.449219 120.058594 112.054688 127.742188 88.519531 129.277344 C 64.984375 130.816406 57.054688 137.476562 49.890625 144.648438 C 54.550781 131.253906 72.355469 122.167969 79.238281 120.339844 " fill-opacity="1" fill-rule="nonzero"/></g><g fill="#025492" fill-opacity="1"><g transform="translate(95.367197, 356.947066)"><g><path d="M 7.820312 -40.265625 C 2.386719 -36.914062 2.84375 -30.71875 2.894531 -26.351562 L 2.996094 -2.335938 L 0.304688 -0.710938 L 0.355469 0 C 9.496094 0 11.78125 -0.0507812 14.015625 0 L 14.015625 -0.710938 L 11.628906 -2.335938 L 11.578125 -28.535156 L 14.167969 -28.535156 L 14.167969 -29.550781 L 11.578125 -29.550781 C 7.769531 -29.5 9.292969 -38.894531 9.648438 -40.265625 C 10.207031 -42.449219 14.371094 -30.871094 15.386719 -30.515625 C 15.4375 -30.667969 15.335938 -41.535156 15.386719 -41.738281 C 13.101562 -42.246094 10.511719 -41.890625 7.820312 -40.265625 Z M 7.820312 -40.265625 "/></g></g></g><g fill="#025492" fill-opacity="1"><g transform="translate(111.20607, 356.947066)"><g><path d="M 25.996094 -20.308594 C 25.335938 -28.738281 13.101562 -32.496094 5.789062 -26.25 C 2.996094 -23.914062 1.066406 -20.054688 1.066406 -14.421875 C 1.117188 1.675781 20.257812 5.484375 24.574219 -8.886719 L 23.964844 -9.140625 C 20.5625 -4.367188 12.238281 -3.453125 10.714844 -12.136719 C 13.964844 -12.949219 24.167969 -19.039062 25.488281 -19.394531 C 25.84375 -19.496094 25.996094 -20.054688 25.996094 -20.308594 Z M 20.003906 -25.335938 C 19.394531 -23.355469 16.957031 -19.851562 10.5625 -13.40625 C 10.511719 -13.964844 10.460938 -14.574219 10.460938 -15.183594 C 10.460938 -20.867188 11.984375 -24.625 13.761719 -26.605469 C 16.246094 -29.296875 20.816406 -28.230469 20.003906 -25.335938 Z M 20.003906 -25.335938 "/></g></g></g><g fill="#025492" fill-opacity="1"><g transform="translate(138.416445, 356.947066)"><g><path d="M 13.914062 -0.710938 L 11.527344 -2.335938 C 11.527344 -2.335938 11.476562 -36.355469 11.527344 -37.828125 C 11.578125 -38.996094 10.867188 -39.554688 9.800781 -39.605469 C 9.089844 -39.605469 8.175781 -39.605469 7.160156 -39.605469 C 4.621094 -39.605469 0.558594 -39.554688 0.558594 -39.554688 L 0.558594 -38.84375 L 2.894531 -37.269531 L 2.894531 -2.335938 L 0.203125 -0.710938 L 0.203125 0 C 0.203125 0 2.742188 0 7.160156 0 C 11.527344 0 13.914062 0 13.914062 0 Z M 13.914062 -0.710938 "/></g></g></g><g fill="#025492" fill-opacity="1"><g transform="translate(152.580053, 356.947066)"><g><path d="M 21.425781 -28.535156 C 18.125 -28.535156 15.03125 -27.265625 13.253906 -24.574219 L 13.203125 -27.214844 C 13.253906 -28.332031 12.542969 -28.941406 11.527344 -28.941406 L 8.835938 -28.941406 C 6.347656 -28.941406 2.234375 -28.890625 2.234375 -28.890625 L 2.234375 -28.179688 L 4.570312 -26.605469 L 4.671875 7.414062 L 1.980469 9.039062 L 1.980469 9.75 L 15.691406 9.75 L 15.691406 9.039062 L 13.304688 7.414062 C 13.304688 7.414062 13.304688 4.0625 13.304688 -0.203125 C 14.675781 0.558594 16.753906 0.8125 18.277344 0.8125 C 20.511719 0.8125 22.59375 0.304688 24.472656 -0.609375 C 29.550781 -3.148438 30.769531 -9.394531 30.769531 -15.082031 C 30.769531 -24.929688 26.148438 -28.535156 21.425781 -28.535156 Z M 18.378906 -2.234375 C 16.753906 -0.355469 14.21875 -0.710938 13.304688 -1.21875 C 13.304688 -1.878906 13.253906 -14.929688 13.253906 -22.644531 C 13.457031 -23.457031 13.863281 -24.117188 14.472656 -24.675781 C 19.546875 -29.296875 20.765625 -20.714844 20.765625 -13.863281 C 20.765625 -10.460938 20.5625 -4.824219 18.378906 -2.234375 Z M 18.378906 -2.234375 "/></g></g></g><g fill="#025492" fill-opacity="1"><g transform="translate(184.562396, 356.947066)"><g><path d="M 41.789062 -0.710938 L 38.285156 -2.386719 L 25.4375 -34.578125 L 28.636719 -36.203125 L 28.6875 -36.914062 L 16.09375 -36.964844 C 8.226562 -8.785156 7.464844 -3.453125 0.964844 -0.761719 C 0.964844 -0.40625 0.964844 -0.253906 0.964844 -0.0507812 C 1.117188 -0.0507812 17.921875 -0.0507812 18.429688 -0.0507812 C 18.378906 -0.203125 18.480469 -0.40625 18.429688 -0.761719 C 14.269531 -1.015625 12.644531 -5.992188 12.492188 -12.238281 L 24.421875 -12.238281 C 26.402344 -6.90625 28.027344 -2.488281 28.027344 -2.488281 L 25.539062 -0.710938 L 25.539062 0.0507812 L 41.789062 0 Z M 12.492188 -13.152344 C 12.492188 -19.140625 13.863281 -26.453125 15.691406 -33.054688 C 16.09375 -34.425781 16.246094 -34.578125 16.753906 -32.851562 C 16.855469 -32.546875 20.867188 -21.730469 24.066406 -13.152344 Z M 12.492188 -13.152344 "/></g></g></g><g fill="#025492" fill-opacity="1"><g transform="translate(227.357826, 356.947066)"><g><path d="M 21.425781 -28.535156 C 18.125 -28.535156 15.03125 -27.265625 13.253906 -24.574219 L 13.203125 -27.214844 C 13.253906 -28.332031 12.542969 -28.941406 11.527344 -28.941406 L 8.835938 -28.941406 C 6.347656 -28.941406 2.234375 -28.890625 2.234375 -28.890625 L 2.234375 -28.179688 L 4.570312 -26.605469 L 4.671875 7.414062 L 1.980469 9.039062 L 1.980469 9.75 L 15.691406 9.75 L 15.691406 9.039062 L 13.304688 7.414062 C 13.304688 7.414062 13.304688 4.0625 13.304688 -0.203125 C 14.675781 0.558594 16.753906 0.8125 18.277344 0.8125 C 20.511719 0.8125 22.59375 0.304688 24.472656 -0.609375 C 29.550781 -3.148438 30.769531 -9.394531 30.769531 -15.082031 C 30.769531 -24.929688 26.148438 -28.535156 21.425781 -28.535156 Z M 18.378906 -2.234375 C 16.753906 -0.355469 14.21875 -0.710938 13.304688 -1.21875 C 13.304688 -1.878906 13.253906 -14.929688 13.253906 -22.644531 C 13.457031 -23.457031 13.863281 -24.117188 14.472656 -24.675781 C 19.546875 -29.296875 20.765625 -20.714844 20.765625 -13.863281 C 20.765625 -10.460938 20.5625 -4.824219 18.378906 -2.234375 Z M 18.378906 -2.234375 "/></g></g></g><g fill="#025492" fill-opacity="1"><g transform="translate(259.340169, 356.947066)"><g><path d="M 21.425781 -28.535156 C 18.125 -28.535156 15.03125 -27.265625 13.253906 -24.574219 L 13.203125 -27.214844 C 13.253906 -28.332031 12.542969 -28.941406 11.527344 -28.941406 L 8.835938 -28.941406 C 6.347656 -28.941406 2.234375 -28.890625 2.234375 -28.890625 L 2.234375 -28.179688 L 4.570312 -26.605469 L 4.671875 7.414062 L 1.980469 9.039062 L 1.980469 9.75 L 15.691406 9.75 L 15.691406 9.039062 L 13.304688 7.414062 C 13.304688 7.414062 13.304688 4.0625 13.304688 -0.203125 C 14.675781 0.558594 16.753906 0.8125 18.277344 0.8125 C 20.511719 0.8125 22.59375 0.304688 24.472656 -0.609375 C 29.550781 -3.148438 30.769531 -9.394531 30.769531 -15.082031 C 30.769531 -24.929688 26.148438 -28.535156 21.425781 -28.535156 Z M 18.378906 -2.234375 C 16.753906 -0.355469 14.21875 -0.710938 13.304688 -1.21875 C 13.304688 -1.878906 13.253906 -14.929688 13.253906 -22.644531 C 13.457031 -23.457031 13.863281 -24.117188 14.472656 -24.675781 C 19.546875 -29.296875 20.765625 -20.714844 20.765625 -13.863281 C 20.765625 -10.460938 20.5625 -4.824219 18.378906 -2.234375 Z M 18.378906 -2.234375 "/></g></g></g></svg>