<svg xmlns="http://www.w3.org/2000/svg" xmlns:xlink="http://www.w3.org/1999/xlink" width="1200" zoomAndPan="magnify" viewBox="0 0 900 374.999991" height="500" preserveAspectRatio="xMidYMid meet" version="1.0"><defs><g/><clipPath id="id1"><path d="M 36 19.992188 L 890.355469 19.992188 L 890.355469 330 L 36 330 Z M 36 19.992188 " clip-rule="nonzero"/></clipPath><clipPath id="id2"><path d="M 68 321 L 108 321 L 108 355.242188 L 68 355.242188 Z M 68 321 " clip-rule="nonzero"/></clipPath><clipPath id="id3"><path d="M 29.355469 241 L 38 241 L 38 253 L 29.355469 253 Z M 29.355469 241 " clip-rule="nonzero"/></clipPath><clipPath id="id4"><path d="M 307.878906 5.324219 L 632.628906 5.324219 L 632.628906 330.074219 L 307.878906 330.074219 Z M 307.878906 5.324219 " clip-rule="nonzero"/></clipPath><clipPath id="id5"><path d="M 253.550781 5.324219 L 578.300781 5.324219 L 578.300781 330.074219 L 253.550781 330.074219 Z M 253.550781 5.324219 " clip-rule="nonzero"/></clipPath></defs><rect x="-90" width="1080" fill="#ffffff" y="-37.499999" height="449.999989" fill-opacity="1"/><rect x="-90" width="1080" fill="#ffffff" y="-37.499999" height="449.999989" fill-opacity="1"/><rect x="-90" width="1080" fill="#ffffff" y="-37.499999" height="449.999989" fill-opacity="1"/><rect x="-90" width="1080" fill="#ffffff" y="-37.499999" height="449.999989" fill-opacity="1"/><g clip-path="url(#id1)"><path fill="#025492" d="M 873.339844 154.515625 C 869.828125 152.234375 881.582031 149.773438 886.847656 145.210938 C 892.109375 140.46875 854.742188 143.980469 850.007812 139.414062 C 845.269531 134.671875 875.792969 137.132812 884.390625 135.902344 C 892.984375 134.671875 876.847656 120.625 868.777344 113.601562 C 860.53125 106.578125 870.003906 104.296875 873.515625 95.691406 C 876.144531 89.371094 861.933594 92.003906 854.566406 94.109375 C 861.234375 91.125 872.109375 84.980469 865.445312 83.222656 C 856.144531 80.941406 877.199219 74.972656 882.988281 70.40625 C 888.777344 65.839844 877.199219 64.609375 882.460938 56.359375 C 887.722656 48.105469 849.128906 57.585938 860.882812 54.074219 C 872.636719 50.5625 887.722656 31.773438 880.707031 35.285156 C 873.6875 38.796875 864.390625 34.058594 870.179688 29.492188 C 875.96875 24.75 863.164062 15.445312 849.128906 22.46875 C 835.09375 29.492188 538.097656 63.382812 532.132812 59.871094 C 526.34375 56.359375 548.445312 40.027344 523.886719 40.027344 C 499.324219 40.027344 287.410156 73.214844 287.410156 73.214844 L 278.113281 73.214844 L 40.582031 171.546875 C 24.96875 178.046875 60.40625 176.816406 48.828125 183.839844 C 37.25 190.863281 47.597656 203.683594 59.351562 197.886719 C 71.105469 192.09375 43.039062 220.1875 54.617188 218.960938 C 66.371094 217.730469 34.792969 250.566406 40.582031 257.589844 C 46.371094 264.613281 69.878906 245.824219 58.125 280.945312 C 46.371094 316.0625 65.140625 340.648438 80.402344 324.316406 C 95.667969 307.988281 154.082031 300.964844 173.90625 297.449219 C 193.730469 293.9375 246.359375 288.144531 199.695312 288.144531 C 153.03125 288.144531 87.421875 317.292969 162.328125 285.6875 C 237.238281 254.078125 459.328125 317.292969 460.554688 310.269531 C 461.785156 303.246094 577.566406 307.988281 599.671875 305.527344 C 621.773438 303.070312 653.527344 299.734375 643 294.992188 C 632.476562 290.25 694.402344 287.96875 703.875 284.632812 C 713.171875 281.296875 729.664062 262.859375 717.910156 267.949219 C 706.15625 273.042969 589.320312 296.046875 534.234375 277.257812 C 508.097656 268.300781 578.96875 264.789062 661.070312 263.386719 C 638.265625 266.371094 551.605469 270.9375 563.355469 272.691406 C 574.761719 274.449219 649.667969 270.585938 657.738281 267.949219 C 662.121094 266.546875 670.015625 264.261719 671.945312 263.210938 C 695.101562 262.859375 718.960938 262.683594 741.59375 262.683594 C 753.695312 263.5625 769.484375 264.613281 768.78125 267.773438 C 767.378906 273.570312 788.429688 272.867188 788.957031 267.773438 C 789.132812 266.019531 783.34375 264.085938 775.097656 262.683594 C 822.640625 262.683594 858.601562 263.210938 860.707031 263.210938 C 867.722656 263.210938 873.511719 256.1875 872.460938 249.164062 C 871.234375 242.136719 878.25 231.601562 877.199219 223.347656 C 875.96875 215.097656 844.394531 214.042969 861.933594 211.585938 C 879.476562 209.300781 873.6875 202.277344 880.707031 199.820312 C 887.722656 197.359375 877.199219 187 884.214844 182.261719 C 891.230469 177.519531 877.199219 175.234375 887.546875 171.199219 C 897.722656 167.511719 876.847656 156.972656 873.339844 154.515625 Z M 873.339844 154.515625 " fill-opacity="1" fill-rule="nonzero"/></g><path fill="#025492" d="M 104.964844 133.445312 C 104.964844 133.445312 282.671875 56.183594 336.527344 48.632812 C 390.386719 41.082031 362.316406 28.085938 322.496094 42.132812 C 282.671875 56.183594 99.175781 128.703125 86.195312 133.445312 C 73.386719 138.1875 86.542969 141.347656 104.964844 133.445312 Z M 104.964844 133.445312 " fill-opacity="1" fill-rule="nonzero"/><path fill="#025492" d="M 55.84375 156.972656 C 66.894531 156.449219 78.648438 146.964844 81.105469 144.15625 C 85.667969 138.710938 56.371094 146.964844 43.5625 150.476562 C 30.757812 153.988281 44.792969 157.5 55.84375 156.972656 Z M 55.84375 156.972656 " fill-opacity="1" fill-rule="nonzero"/><g clip-path="url(#id2)"><path fill="#025492" d="M 74.613281 337.136719 C 66.546875 348.902344 66.371094 356.976562 77.597656 354.695312 C 88.648438 352.414062 93.386719 327.125 105.140625 322.5625 C 116.71875 317.820312 81.808594 326.601562 74.613281 337.136719 Z M 74.613281 337.136719 " fill-opacity="1" fill-rule="nonzero"/></g><path fill="#025492" d="M 42.160156 271.636719 C 36.546875 275.152344 33.039062 277.785156 34.265625 290.601562 C 35.496094 303.421875 44.792969 287.441406 49.179688 280.945312 C 53.5625 274.449219 47.074219 268.652344 42.160156 271.636719 Z M 42.160156 271.636719 " fill-opacity="1" fill-rule="nonzero"/><g clip-path="url(#id3)"><path fill="#025492" d="M 34.089844 242.664062 C 29.882812 246.175781 26.898438 256.363281 32.160156 251.796875 C 38.300781 246.703125 38.300781 239.152344 34.089844 242.664062 Z M 34.089844 242.664062 " fill-opacity="1" fill-rule="nonzero"/></g><path fill="#025492" d="M 559.324219 43.363281 C 565.113281 41.082031 575.636719 35.109375 585.109375 32.828125 C 594.40625 30.546875 576.339844 27.558594 566.691406 32.828125 C 557.042969 38.097656 546.867188 32.652344 548.269531 35.988281 C 550.023438 40.203125 553.535156 45.644531 559.324219 43.363281 Z M 559.324219 43.363281 " fill-opacity="1" fill-rule="nonzero"/><path fill="#025492" d="M 754.925781 284.28125 C 742.644531 281.121094 674.402344 292.535156 662.824219 295.695312 C 660.195312 296.398438 658.964844 301.839844 668.085938 298.855469 C 677.210938 295.871094 737.382812 291.480469 748.785156 293.589844 C 760.1875 295.695312 767.203125 287.441406 754.925781 284.28125 Z M 754.925781 284.28125 " fill-opacity="1" fill-rule="nonzero"/><path fill="#025492" d="M 409.683594 307.285156 C 398.628906 303.773438 302.496094 285.863281 290.214844 283.929688 C 284.601562 283.050781 293.898438 287.96875 308.8125 290.074219 C 323.722656 292.183594 383.367188 304.300781 388.632812 308.863281 C 393.894531 313.429688 400.910156 315.1875 406.171875 315.539062 C 411.4375 315.890625 400.910156 312.027344 400.910156 312.027344 L 389.15625 305.351562 L 411.261719 313.253906 L 417.226562 311.148438 C 417.050781 311.324219 420.734375 310.796875 409.683594 307.285156 Z M 409.683594 307.285156 " fill-opacity="1" fill-rule="nonzero"/><g clip-path="url(#id4)"><path fill="#f8cf40" d="M 470.253906 330.074219 C 380.71875 330.074219 307.878906 257.234375 307.878906 167.699219 C 307.878906 78.164062 380.71875 5.324219 470.253906 5.324219 C 559.789062 5.324219 632.628906 78.164062 632.628906 167.699219 C 632.628906 257.234375 559.789062 330.074219 470.253906 330.074219 Z M 470.253906 9.488281 C 383.015625 9.488281 312.042969 80.460938 312.042969 167.699219 C 312.042969 254.9375 383.015625 325.910156 470.253906 325.910156 C 557.492188 325.910156 628.464844 254.9375 628.464844 167.699219 C 628.464844 80.460938 557.492188 9.488281 470.253906 9.488281 Z M 470.253906 9.488281 " fill-opacity="1" fill-rule="nonzero"/></g><g clip-path="url(#id5)"><path fill="#f8cf40" d="M 415.925781 330.074219 C 326.390625 330.074219 253.550781 257.234375 253.550781 167.699219 C 253.550781 78.164062 326.390625 5.324219 415.925781 5.324219 C 505.457031 5.324219 578.300781 78.164062 578.300781 167.699219 C 578.300781 257.234375 505.457031 330.074219 415.925781 330.074219 Z M 415.925781 9.488281 C 328.6875 9.488281 257.714844 80.460938 257.714844 167.699219 C 257.714844 254.9375 328.6875 325.910156 415.925781 325.910156 C 503.164062 325.910156 574.136719 254.9375 574.136719 167.699219 C 574.136719 80.460938 503.164062 9.488281 415.925781 9.488281 Z M 415.925781 9.488281 " fill-opacity="1" fill-rule="nonzero"/></g><g fill="#f8cf40" fill-opacity="1"><g transform="translate(338.442581, 239.461088)"><g><path d="M 54.953125 -126.8125 C 61.691406 -126.8125 68.28125 -125.828125 74.71875 -123.859375 C 81.164062 -121.898438 85.953125 -119.96875 89.078125 -118.0625 L 93.59375 -115.03125 L 82.125 -92.390625 C 81.21875 -92.992188 79.957031 -93.773438 78.34375 -94.734375 C 76.738281 -95.691406 73.722656 -96.972656 69.296875 -98.578125 C 64.867188 -100.191406 60.742188 -101 56.921875 -101 C 52.179688 -101 48.53125 -99.988281 45.96875 -97.96875 C 43.40625 -95.957031 42.125 -93.242188 42.125 -89.828125 C 42.125 -88.117188 42.726562 -86.53125 43.9375 -85.0625 C 45.144531 -83.601562 47.207031 -82.046875 50.125 -80.390625 C 53.039062 -78.734375 55.601562 -77.398438 57.8125 -76.390625 C 60.03125 -75.378906 63.457031 -73.867188 68.09375 -71.859375 C 76.144531 -68.441406 83.007812 -63.785156 88.6875 -57.890625 C 94.375 -52.003906 97.21875 -45.335938 97.21875 -37.890625 C 97.21875 -30.742188 95.9375 -24.503906 93.375 -19.171875 C 90.8125 -13.835938 87.289062 -9.660156 82.8125 -6.640625 C 78.332031 -3.617188 73.375 -1.378906 67.9375 0.078125 C 62.5 1.535156 56.609375 2.265625 50.265625 2.265625 C 44.835938 2.265625 39.503906 1.707031 34.265625 0.59375 C 29.035156 -0.507812 24.660156 -1.890625 21.140625 -3.546875 C 17.617188 -5.203125 14.445312 -6.835938 11.625 -8.453125 C 8.800781 -10.066406 6.738281 -11.425781 5.4375 -12.53125 L 3.46875 -14.1875 L 17.65625 -38.046875 C 18.863281 -37.035156 20.523438 -35.75 22.640625 -34.1875 C 24.753906 -32.632812 28.503906 -30.546875 33.890625 -27.921875 C 39.273438 -25.304688 44.03125 -24 48.15625 -24 C 60.132812 -24 66.125 -28.078125 66.125 -36.234375 C 66.125 -37.941406 65.695312 -39.523438 64.84375 -40.984375 C 63.988281 -42.441406 62.476562 -43.898438 60.3125 -45.359375 C 58.144531 -46.828125 56.226562 -47.988281 54.5625 -48.84375 C 52.90625 -49.695312 50.191406 -51.003906 46.421875 -52.765625 C 42.648438 -54.523438 39.859375 -55.859375 38.046875 -56.765625 C 30.492188 -60.484375 24.65625 -65.132812 20.53125 -70.71875 C 16.40625 -76.3125 14.34375 -82.328125 14.34375 -88.765625 C 14.34375 -99.941406 18.46875 -109.078125 26.71875 -116.171875 C 34.96875 -123.265625 44.378906 -126.8125 54.953125 -126.8125 Z M 54.953125 -126.8125 "/></g></g></g><g fill="#f8cf40" fill-opacity="1"><g transform="translate(439.888473, 239.461088)"><g><path d="M 30.953125 -88.625 L 8.609375 -99.484375 C 8.804688 -100.191406 9.101562 -101.171875 9.5 -102.421875 C 9.90625 -103.679688 11.113281 -105.867188 13.125 -108.984375 C 15.144531 -112.109375 17.515625 -114.878906 20.234375 -117.296875 C 22.953125 -119.710938 26.925781 -121.898438 32.15625 -123.859375 C 37.382812 -125.828125 43.269531 -126.8125 49.8125 -126.8125 C 61.695312 -126.8125 71.488281 -123.414062 79.1875 -116.625 C 86.882812 -109.832031 90.734375 -101.148438 90.734375 -90.578125 C 90.734375 -80.710938 87.0625 -72.914062 79.71875 -67.1875 C 90.28125 -60.738281 95.5625 -51.222656 95.5625 -38.640625 C 95.5625 -26.765625 91.207031 -16.976562 82.5 -9.28125 C 73.800781 -1.582031 62.753906 2.265625 49.359375 2.265625 C 42.210938 2.265625 35.722656 1.207031 29.890625 -0.90625 C 24.054688 -3.019531 19.503906 -5.5625 16.234375 -8.53125 C 12.960938 -11.5 10.242188 -14.492188 8.078125 -17.515625 C 5.910156 -20.535156 4.425781 -23.101562 3.625 -25.21875 L 2.5625 -28.375 L 28.828125 -41.21875 C 28.828125 -40.707031 28.898438 -40.023438 29.046875 -39.171875 C 29.203125 -38.316406 29.734375 -36.78125 30.640625 -34.5625 C 31.546875 -32.351562 32.65625 -30.414062 33.96875 -28.75 C 35.28125 -27.09375 37.269531 -25.582031 39.9375 -24.21875 C 42.601562 -22.863281 45.695312 -22.1875 49.21875 -22.1875 C 54.550781 -22.1875 58.878906 -23.644531 62.203125 -26.5625 C 65.523438 -29.488281 67.1875 -33.515625 67.1875 -38.640625 C 67.1875 -43.984375 65.445312 -48.363281 61.96875 -51.78125 C 58.5 -55.207031 54.25 -56.921875 49.21875 -56.921875 L 43.78125 -56.015625 L 43.78125 -74.578125 L 49.96875 -74.578125 C 53.894531 -74.578125 57.367188 -76.085938 60.390625 -79.109375 C 63.410156 -82.128906 64.921875 -85.851562 64.921875 -90.28125 C 64.921875 -94.207031 63.382812 -97.476562 60.3125 -100.09375 C 57.238281 -102.707031 53.640625 -104.015625 49.515625 -104.015625 C 46.597656 -104.015625 43.957031 -103.484375 41.59375 -102.421875 C 39.226562 -101.367188 37.414062 -100.085938 36.15625 -98.578125 C 34.894531 -97.066406 33.835938 -95.554688 32.984375 -94.046875 C 32.128906 -92.535156 31.601562 -91.28125 31.40625 -90.28125 Z M 30.953125 -88.625 "/></g></g></g><g fill="#f8cf40" fill-opacity="1"><g transform="translate(540.26815, 239.461088)"><g/></g></g><g fill="#025492" fill-opacity="1"><g transform="translate(283.453044, 362.509167)"><g><path d="M 2.875 -16.734375 L 2.875 0 L 5.046875 0 L 5.046875 -8.3125 L 12.453125 -8.3125 L 12.453125 -9.421875 L 5.046875 -9.421875 L 5.046875 -15.421875 L 13.671875 -15.421875 L 13.671875 -16.734375 Z M 2.875 -16.734375 "/></g></g></g><g fill="#025492" fill-opacity="1"><g transform="translate(301.288022, 362.509167)"><g><path d="M 13.578125 -5.953125 C 13.578125 -5.117188 13.429688 -4.320312 13.140625 -3.5625 C 12.859375 -2.8125 12.445312 -2.148438 11.90625 -1.578125 C 11.375 -1.003906 10.726562 -0.550781 9.96875 -0.21875 C 9.21875 0.113281 8.375 0.28125 7.4375 0.28125 C 6.476562 0.28125 5.613281 0.113281 4.84375 -0.21875 C 4.070312 -0.5625 3.414062 -1.019531 2.875 -1.59375 C 2.34375 -2.175781 1.925781 -2.84375 1.625 -3.59375 C 1.332031 -4.351562 1.1875 -5.140625 1.1875 -5.953125 C 1.1875 -6.785156 1.332031 -7.578125 1.625 -8.328125 C 1.925781 -9.085938 2.34375 -9.753906 2.875 -10.328125 C 3.414062 -10.898438 4.070312 -11.359375 4.84375 -11.703125 C 5.613281 -12.046875 6.476562 -12.21875 7.4375 -12.21875 C 8.375 -12.21875 9.21875 -12.046875 9.96875 -11.703125 C 10.726562 -11.359375 11.375 -10.898438 11.90625 -10.328125 C 12.445312 -9.753906 12.859375 -9.085938 13.140625 -8.328125 C 13.429688 -7.578125 13.578125 -6.785156 13.578125 -5.953125 Z M 11.3125 -5.953125 C 11.3125 -7.066406 11.191406 -7.96875 10.953125 -8.65625 C 10.710938 -9.351562 10.398438 -9.894531 10.015625 -10.28125 C 9.628906 -10.664062 9.207031 -10.925781 8.75 -11.0625 C 8.289062 -11.195312 7.84375 -11.265625 7.40625 -11.265625 C 6.976562 -11.265625 6.53125 -11.195312 6.0625 -11.0625 C 5.601562 -10.925781 5.175781 -10.664062 4.78125 -10.28125 C 4.394531 -9.894531 4.078125 -9.351562 3.828125 -8.65625 C 3.585938 -7.96875 3.46875 -7.066406 3.46875 -5.953125 C 3.46875 -4.847656 3.585938 -3.945312 3.828125 -3.25 C 4.078125 -2.5625 4.394531 -2.023438 4.78125 -1.640625 C 5.175781 -1.265625 5.601562 -1.007812 6.0625 -0.875 C 6.53125 -0.738281 6.976562 -0.671875 7.40625 -0.671875 C 7.84375 -0.671875 8.289062 -0.738281 8.75 -0.875 C 9.207031 -1.007812 9.628906 -1.265625 10.015625 -1.640625 C 10.398438 -2.023438 10.710938 -2.5625 10.953125 -3.25 C 11.191406 -3.945312 11.3125 -4.847656 11.3125 -5.953125 Z M 11.3125 -5.953125 "/></g></g></g><g fill="#025492" fill-opacity="1"><g transform="translate(319.505496, 362.509167)"><g><path d="M 1.90625 -11.953125 L 1.90625 0 L 3.9375 0 L 3.9375 -7.21875 C 3.9375 -7.875 4.015625 -8.425781 4.171875 -8.875 C 4.328125 -9.332031 4.519531 -9.703125 4.75 -9.984375 C 4.988281 -10.273438 5.25 -10.484375 5.53125 -10.609375 C 5.820312 -10.742188 6.109375 -10.8125 6.390625 -10.8125 C 6.753906 -10.8125 7.085938 -10.691406 7.390625 -10.453125 C 7.703125 -10.210938 7.929688 -9.988281 8.078125 -9.78125 L 8.890625 -11.265625 C 8.742188 -11.453125 8.570312 -11.609375 8.375 -11.734375 C 8.175781 -11.859375 7.976562 -11.957031 7.78125 -12.03125 C 7.582031 -12.101562 7.398438 -12.148438 7.234375 -12.171875 C 7.066406 -12.203125 6.941406 -12.21875 6.859375 -12.21875 C 6.191406 -12.21875 5.632812 -12.03125 5.1875 -11.65625 C 4.738281 -11.289062 4.375 -10.753906 4.09375 -10.046875 L 3.9375 -10.046875 L 3.9375 -11.953125 Z M 1.90625 -11.953125 "/></g></g></g><g fill="#025492" fill-opacity="1"><g transform="translate(332.081116, 362.509167)"><g/></g></g><g fill="#025492" fill-opacity="1"><g transform="translate(343.891738, 362.509167)"><g><path d="M 0.71875 -16.734375 L 6.5 -6.328125 L 6.5 0 L 8.671875 0 L 8.671875 -6.546875 L 14.5625 -16.734375 L 13.265625 -16.734375 L 8.15625 -7.90625 L 8.0625 -7.90625 L 3.171875 -16.734375 Z M 0.71875 -16.734375 "/></g></g></g><g fill="#025492" fill-opacity="1"><g transform="translate(362.611238, 362.509167)"><g><path d="M 13.578125 -5.953125 C 13.578125 -5.117188 13.429688 -4.320312 13.140625 -3.5625 C 12.859375 -2.8125 12.445312 -2.148438 11.90625 -1.578125 C 11.375 -1.003906 10.726562 -0.550781 9.96875 -0.21875 C 9.21875 0.113281 8.375 0.28125 7.4375 0.28125 C 6.476562 0.28125 5.613281 0.113281 4.84375 -0.21875 C 4.070312 -0.5625 3.414062 -1.019531 2.875 -1.59375 C 2.34375 -2.175781 1.925781 -2.84375 1.625 -3.59375 C 1.332031 -4.351562 1.1875 -5.140625 1.1875 -5.953125 C 1.1875 -6.785156 1.332031 -7.578125 1.625 -8.328125 C 1.925781 -9.085938 2.34375 -9.753906 2.875 -10.328125 C 3.414062 -10.898438 4.070312 -11.359375 4.84375 -11.703125 C 5.613281 -12.046875 6.476562 -12.21875 7.4375 -12.21875 C 8.375 -12.21875 9.21875 -12.046875 9.96875 -11.703125 C 10.726562 -11.359375 11.375 -10.898438 11.90625 -10.328125 C 12.445312 -9.753906 12.859375 -9.085938 13.140625 -8.328125 C 13.429688 -7.578125 13.578125 -6.785156 13.578125 -5.953125 Z M 11.3125 -5.953125 C 11.3125 -7.066406 11.191406 -7.96875 10.953125 -8.65625 C 10.710938 -9.351562 10.398438 -9.894531 10.015625 -10.28125 C 9.628906 -10.664062 9.207031 -10.925781 8.75 -11.0625 C 8.289062 -11.195312 7.84375 -11.265625 7.40625 -11.265625 C 6.976562 -11.265625 6.53125 -11.195312 6.0625 -11.0625 C 5.601562 -10.925781 5.175781 -10.664062 4.78125 -10.28125 C 4.394531 -9.894531 4.078125 -9.351562 3.828125 -8.65625 C 3.585938 -7.96875 3.46875 -7.066406 3.46875 -5.953125 C 3.46875 -4.847656 3.585938 -3.945312 3.828125 -3.25 C 4.078125 -2.5625 4.394531 -2.023438 4.78125 -1.640625 C 5.175781 -1.265625 5.601562 -1.007812 6.0625 -0.875 C 6.53125 -0.738281 6.976562 -0.671875 7.40625 -0.671875 C 7.84375 -0.671875 8.289062 -0.738281 8.75 -0.875 C 9.207031 -1.007812 9.628906 -1.265625 10.015625 -1.640625 C 10.398438 -2.023438 10.710938 -2.5625 10.953125 -3.25 C 11.191406 -3.945312 11.3125 -4.847656 11.3125 -5.953125 Z M 11.3125 -5.953125 "/></g></g></g><g fill="#025492" fill-opacity="1"><g transform="translate(380.828709, 362.509167)"><g><path d="M 1.90625 -11.953125 L 1.90625 -4.1875 C 1.90625 -3.894531 1.929688 -3.5 1.984375 -3 C 2.046875 -2.5 2.210938 -2.003906 2.484375 -1.515625 C 2.753906 -1.023438 3.179688 -0.601562 3.765625 -0.25 C 4.347656 0.101562 5.164062 0.28125 6.21875 0.28125 C 6.675781 0.300781 7.179688 0.210938 7.734375 0.015625 C 8.285156 -0.179688 8.835938 -0.5625 9.390625 -1.125 L 9.78125 -1.5 L 9.875 -1.5 L 9.875 0 L 11.90625 0 L 11.90625 -11.953125 L 9.875 -11.953125 L 9.875 -4.546875 C 9.875 -3.921875 9.785156 -3.382812 9.609375 -2.9375 C 9.429688 -2.488281 9.195312 -2.117188 8.90625 -1.828125 C 8.625 -1.535156 8.289062 -1.316406 7.90625 -1.171875 C 7.53125 -1.023438 7.132812 -0.953125 6.71875 -0.953125 C 6.050781 -0.953125 5.53125 -1.082031 5.15625 -1.34375 C 4.78125 -1.613281 4.5 -1.921875 4.3125 -2.265625 C 4.132812 -2.617188 4.023438 -2.96875 3.984375 -3.3125 C 3.953125 -3.65625 3.9375 -3.90625 3.9375 -4.0625 L 3.9375 -11.953125 Z M 1.90625 -11.953125 "/></g></g></g><g fill="#025492" fill-opacity="1"><g transform="translate(398.161655, 362.509167)"><g><path d="M 1.90625 -11.953125 L 1.90625 0 L 3.9375 0 L 3.9375 -7.21875 C 3.9375 -7.875 4.015625 -8.425781 4.171875 -8.875 C 4.328125 -9.332031 4.519531 -9.703125 4.75 -9.984375 C 4.988281 -10.273438 5.25 -10.484375 5.53125 -10.609375 C 5.820312 -10.742188 6.109375 -10.8125 6.390625 -10.8125 C 6.753906 -10.8125 7.085938 -10.691406 7.390625 -10.453125 C 7.703125 -10.210938 7.929688 -9.988281 8.078125 -9.78125 L 8.890625 -11.265625 C 8.742188 -11.453125 8.570312 -11.609375 8.375 -11.734375 C 8.175781 -11.859375 7.976562 -11.957031 7.78125 -12.03125 C 7.582031 -12.101562 7.398438 -12.148438 7.234375 -12.171875 C 7.066406 -12.203125 6.941406 -12.21875 6.859375 -12.21875 C 6.191406 -12.21875 5.632812 -12.03125 5.1875 -11.65625 C 4.738281 -11.289062 4.375 -10.753906 4.09375 -10.046875 L 3.9375 -10.046875 L 3.9375 -11.953125 Z M 1.90625 -11.953125 "/></g></g></g><g fill="#025492" fill-opacity="1"><g transform="translate(410.737269, 362.509167)"><g/></g></g><g fill="#025492" fill-opacity="1"><g transform="translate(422.547892, 362.509167)"><g><path d="M 2.875 0 L 8.875 0 C 9.9375 0 10.832031 -0.140625 11.5625 -0.421875 C 12.300781 -0.703125 12.894531 -1.0625 13.34375 -1.5 C 13.789062 -1.945312 14.113281 -2.453125 14.3125 -3.015625 C 14.507812 -3.585938 14.609375 -4.160156 14.609375 -4.734375 C 14.609375 -5.640625 14.410156 -6.363281 14.015625 -6.90625 C 13.628906 -7.445312 13.164062 -7.859375 12.625 -8.140625 C 12.082031 -8.429688 11.523438 -8.625 10.953125 -8.71875 C 10.378906 -8.820312 9.914062 -8.878906 9.5625 -8.890625 L 9.5625 -8.984375 C 10.125 -8.984375 10.648438 -9.09375 11.140625 -9.3125 C 11.628906 -9.53125 12.0625 -9.804688 12.4375 -10.140625 C 12.8125 -10.484375 13.109375 -10.882812 13.328125 -11.34375 C 13.554688 -11.800781 13.671875 -12.285156 13.671875 -12.796875 C 13.671875 -13.234375 13.570312 -13.679688 13.375 -14.140625 C 13.1875 -14.609375 12.894531 -15.035156 12.5 -15.421875 C 12.113281 -15.804688 11.613281 -16.117188 11 -16.359375 C 10.394531 -16.609375 9.675781 -16.734375 8.84375 -16.734375 L 2.875 -16.734375 Z M 5.046875 -1.046875 L 5.046875 -8.359375 L 7.671875 -8.359375 C 8.453125 -8.359375 9.128906 -8.253906 9.703125 -8.046875 C 10.273438 -7.847656 10.75 -7.570312 11.125 -7.21875 C 11.5 -6.863281 11.773438 -6.457031 11.953125 -6 C 12.140625 -5.539062 12.234375 -5.054688 12.234375 -4.546875 C 12.234375 -3.984375 12.132812 -3.488281 11.9375 -3.0625 C 11.738281 -2.632812 11.472656 -2.265625 11.140625 -1.953125 C 10.804688 -1.648438 10.410156 -1.421875 9.953125 -1.265625 C 9.503906 -1.117188 9.023438 -1.046875 8.515625 -1.046875 Z M 5.046875 -9.421875 L 5.046875 -15.6875 L 7.953125 -15.6875 C 8.578125 -15.6875 9.109375 -15.597656 9.546875 -15.421875 C 9.984375 -15.242188 10.34375 -15.007812 10.625 -14.71875 C 10.90625 -14.4375 11.109375 -14.113281 11.234375 -13.75 C 11.359375 -13.382812 11.421875 -13.015625 11.421875 -12.640625 C 11.421875 -12.179688 11.328125 -11.75 11.140625 -11.34375 C 10.960938 -10.945312 10.707031 -10.601562 10.375 -10.3125 C 10.050781 -10.03125 9.675781 -9.8125 9.25 -9.65625 C 8.832031 -9.5 8.382812 -9.421875 7.90625 -9.421875 Z M 5.046875 -9.421875 "/></g></g></g><g fill="#025492" fill-opacity="1"><g transform="translate(441.793328, 362.509167)"><g><path d="M 12.53125 -5.453125 L 12.53125 -5.953125 C 12.53125 -7.015625 12.378906 -7.9375 12.078125 -8.71875 C 11.773438 -9.5 11.363281 -10.144531 10.84375 -10.65625 C 10.320312 -11.164062 9.71875 -11.546875 9.03125 -11.796875 C 8.351562 -12.054688 7.628906 -12.1875 6.859375 -12.1875 C 6.046875 -12.1875 5.296875 -12.046875 4.609375 -11.765625 C 3.921875 -11.492188 3.320312 -11.085938 2.8125 -10.546875 C 2.3125 -10.015625 1.914062 -9.367188 1.625 -8.609375 C 1.332031 -7.859375 1.1875 -7.003906 1.1875 -6.046875 C 1.1875 -5.253906 1.3125 -4.476562 1.5625 -3.71875 C 1.8125 -2.957031 2.1875 -2.273438 2.6875 -1.671875 C 3.1875 -1.078125 3.820312 -0.601562 4.59375 -0.25 C 5.375 0.101562 6.289062 0.28125 7.34375 0.28125 C 8.363281 0.28125 9.300781 0.101562 10.15625 -0.25 C 11.019531 -0.601562 11.769531 -1.117188 12.40625 -1.796875 L 11.640625 -2.5625 C 11.304688 -2.269531 10.988281 -2.003906 10.6875 -1.765625 C 10.394531 -1.523438 10.097656 -1.328125 9.796875 -1.171875 C 9.492188 -1.015625 9.175781 -0.890625 8.84375 -0.796875 C 8.519531 -0.710938 8.160156 -0.671875 7.765625 -0.671875 C 7.316406 -0.671875 6.84375 -0.738281 6.34375 -0.875 C 5.84375 -1.007812 5.375 -1.25 4.9375 -1.59375 C 4.507812 -1.945312 4.148438 -2.4375 3.859375 -3.0625 C 3.578125 -3.6875 3.4375 -4.484375 3.4375 -5.453125 Z M 3.4375 -6.40625 C 3.4375 -7.039062 3.503906 -7.65625 3.640625 -8.25 C 3.773438 -8.851562 3.984375 -9.382812 4.265625 -9.84375 C 4.546875 -10.3125 4.898438 -10.679688 5.328125 -10.953125 C 5.753906 -11.234375 6.265625 -11.375 6.859375 -11.375 C 7.992188 -11.375 8.875 -10.929688 9.5 -10.046875 C 10.132812 -9.160156 10.453125 -7.945312 10.453125 -6.40625 Z M 3.4375 -6.40625 "/></g></g></g><g fill="#025492" fill-opacity="1"><g transform="translate(458.958926, 362.509167)"><g><path d="M 0.71875 -11 L 0.71875 -11.953125 L 2.796875 -11.953125 L 2.796875 -15.640625 L 4.828125 -15.640625 L 4.828125 -11.953125 L 7.71875 -11.953125 L 7.71875 -11 L 4.828125 -11 L 4.828125 -3.0625 C 4.828125 -2.863281 4.832031 -2.640625 4.84375 -2.390625 C 4.863281 -2.148438 4.910156 -1.921875 4.984375 -1.703125 C 5.066406 -1.492188 5.191406 -1.316406 5.359375 -1.171875 C 5.535156 -1.023438 5.773438 -0.953125 6.078125 -0.953125 C 6.453125 -0.953125 6.765625 -1.09375 7.015625 -1.375 C 7.273438 -1.664062 7.488281 -1.976562 7.65625 -2.3125 L 8.78125 -1.171875 C 8 -0.390625 7.113281 0 6.125 0 C 5.707031 0 5.296875 -0.0703125 4.890625 -0.21875 C 4.492188 -0.363281 4.140625 -0.582031 3.828125 -0.875 C 3.523438 -1.164062 3.273438 -1.539062 3.078125 -2 C 2.890625 -2.46875 2.796875 -3.015625 2.796875 -3.640625 L 2.796875 -11 Z M 0.71875 -11 "/></g></g></g><g fill="#025492" fill-opacity="1"><g transform="translate(471.367193, 362.509167)"><g><path d="M 0.71875 -11 L 0.71875 -11.953125 L 2.796875 -11.953125 L 2.796875 -15.640625 L 4.828125 -15.640625 L 4.828125 -11.953125 L 7.71875 -11.953125 L 7.71875 -11 L 4.828125 -11 L 4.828125 -3.0625 C 4.828125 -2.863281 4.832031 -2.640625 4.84375 -2.390625 C 4.863281 -2.148438 4.910156 -1.921875 4.984375 -1.703125 C 5.066406 -1.492188 5.191406 -1.316406 5.359375 -1.171875 C 5.535156 -1.023438 5.773438 -0.953125 6.078125 -0.953125 C 6.453125 -0.953125 6.765625 -1.09375 7.015625 -1.375 C 7.273438 -1.664062 7.488281 -1.976562 7.65625 -2.3125 L 8.78125 -1.171875 C 8 -0.390625 7.113281 0 6.125 0 C 5.707031 0 5.296875 -0.0703125 4.890625 -0.21875 C 4.492188 -0.363281 4.140625 -0.582031 3.828125 -0.875 C 3.523438 -1.164062 3.273438 -1.539062 3.078125 -2 C 2.890625 -2.46875 2.796875 -3.015625 2.796875 -3.640625 L 2.796875 -11 Z M 0.71875 -11 "/></g></g></g><g fill="#025492" fill-opacity="1"><g transform="translate(483.775472, 362.509167)"><g><path d="M 12.53125 -5.453125 L 12.53125 -5.953125 C 12.53125 -7.015625 12.378906 -7.9375 12.078125 -8.71875 C 11.773438 -9.5 11.363281 -10.144531 10.84375 -10.65625 C 10.320312 -11.164062 9.71875 -11.546875 9.03125 -11.796875 C 8.351562 -12.054688 7.628906 -12.1875 6.859375 -12.1875 C 6.046875 -12.1875 5.296875 -12.046875 4.609375 -11.765625 C 3.921875 -11.492188 3.320312 -11.085938 2.8125 -10.546875 C 2.3125 -10.015625 1.914062 -9.367188 1.625 -8.609375 C 1.332031 -7.859375 1.1875 -7.003906 1.1875 -6.046875 C 1.1875 -5.253906 1.3125 -4.476562 1.5625 -3.71875 C 1.8125 -2.957031 2.1875 -2.273438 2.6875 -1.671875 C 3.1875 -1.078125 3.820312 -0.601562 4.59375 -0.25 C 5.375 0.101562 6.289062 0.28125 7.34375 0.28125 C 8.363281 0.28125 9.300781 0.101562 10.15625 -0.25 C 11.019531 -0.601562 11.769531 -1.117188 12.40625 -1.796875 L 11.640625 -2.5625 C 11.304688 -2.269531 10.988281 -2.003906 10.6875 -1.765625 C 10.394531 -1.523438 10.097656 -1.328125 9.796875 -1.171875 C 9.492188 -1.015625 9.175781 -0.890625 8.84375 -0.796875 C 8.519531 -0.710938 8.160156 -0.671875 7.765625 -0.671875 C 7.316406 -0.671875 6.84375 -0.738281 6.34375 -0.875 C 5.84375 -1.007812 5.375 -1.25 4.9375 -1.59375 C 4.507812 -1.945312 4.148438 -2.4375 3.859375 -3.0625 C 3.578125 -3.6875 3.4375 -4.484375 3.4375 -5.453125 Z M 3.4375 -6.40625 C 3.4375 -7.039062 3.503906 -7.65625 3.640625 -8.25 C 3.773438 -8.851562 3.984375 -9.382812 4.265625 -9.84375 C 4.546875 -10.3125 4.898438 -10.679688 5.328125 -10.953125 C 5.753906 -11.234375 6.265625 -11.375 6.859375 -11.375 C 7.992188 -11.375 8.875 -10.929688 9.5 -10.046875 C 10.132812 -9.160156 10.453125 -7.945312 10.453125 -6.40625 Z M 3.4375 -6.40625 "/></g></g></g><g fill="#025492" fill-opacity="1"><g transform="translate(500.941082, 362.509167)"><g><path d="M 1.90625 -11.953125 L 1.90625 0 L 3.9375 0 L 3.9375 -7.21875 C 3.9375 -7.875 4.015625 -8.425781 4.171875 -8.875 C 4.328125 -9.332031 4.519531 -9.703125 4.75 -9.984375 C 4.988281 -10.273438 5.25 -10.484375 5.53125 -10.609375 C 5.820312 -10.742188 6.109375 -10.8125 6.390625 -10.8125 C 6.753906 -10.8125 7.085938 -10.691406 7.390625 -10.453125 C 7.703125 -10.210938 7.929688 -9.988281 8.078125 -9.78125 L 8.890625 -11.265625 C 8.742188 -11.453125 8.570312 -11.609375 8.375 -11.734375 C 8.175781 -11.859375 7.976562 -11.957031 7.78125 -12.03125 C 7.582031 -12.101562 7.398438 -12.148438 7.234375 -12.171875 C 7.066406 -12.203125 6.941406 -12.21875 6.859375 -12.21875 C 6.191406 -12.21875 5.632812 -12.03125 5.1875 -11.65625 C 4.738281 -11.289062 4.375 -10.753906 4.09375 -10.046875 L 3.9375 -10.046875 L 3.9375 -11.953125 Z M 1.90625 -11.953125 "/></g></g></g><g fill="#025492" fill-opacity="1"><g transform="translate(513.516696, 362.509167)"><g/></g></g><g fill="#025492" fill-opacity="1"><g transform="translate(525.327319, 362.509167)"><g><path d="M 2.875 -16.734375 L 2.875 0 L 5.046875 0 L 5.046875 -8.3125 L 12.453125 -8.3125 L 12.453125 -9.421875 L 5.046875 -9.421875 L 5.046875 -15.421875 L 13.671875 -15.421875 L 13.671875 -16.734375 Z M 2.875 -16.734375 "/></g></g></g><g fill="#025492" fill-opacity="1"><g transform="translate(543.162294, 362.509167)"><g><path d="M 1.90625 -11.953125 L 1.90625 -4.1875 C 1.90625 -3.894531 1.929688 -3.5 1.984375 -3 C 2.046875 -2.5 2.210938 -2.003906 2.484375 -1.515625 C 2.753906 -1.023438 3.179688 -0.601562 3.765625 -0.25 C 4.347656 0.101562 5.164062 0.28125 6.21875 0.28125 C 6.675781 0.300781 7.179688 0.210938 7.734375 0.015625 C 8.285156 -0.179688 8.835938 -0.5625 9.390625 -1.125 L 9.78125 -1.5 L 9.875 -1.5 L 9.875 0 L 11.90625 0 L 11.90625 -11.953125 L 9.875 -11.953125 L 9.875 -4.546875 C 9.875 -3.921875 9.785156 -3.382812 9.609375 -2.9375 C 9.429688 -2.488281 9.195312 -2.117188 8.90625 -1.828125 C 8.625 -1.535156 8.289062 -1.316406 7.90625 -1.171875 C 7.53125 -1.023438 7.132812 -0.953125 6.71875 -0.953125 C 6.050781 -0.953125 5.53125 -1.082031 5.15625 -1.34375 C 4.78125 -1.613281 4.5 -1.921875 4.3125 -2.265625 C 4.132812 -2.617188 4.023438 -2.96875 3.984375 -3.3125 C 3.953125 -3.65625 3.9375 -3.90625 3.9375 -4.0625 L 3.9375 -11.953125 Z M 1.90625 -11.953125 "/></g></g></g><g fill="#025492" fill-opacity="1"><g transform="translate(560.495239, 362.509167)"><g><path d="M 0.71875 -11 L 0.71875 -11.953125 L 2.796875 -11.953125 L 2.796875 -15.640625 L 4.828125 -15.640625 L 4.828125 -11.953125 L 7.71875 -11.953125 L 7.71875 -11 L 4.828125 -11 L 4.828125 -3.0625 C 4.828125 -2.863281 4.832031 -2.640625 4.84375 -2.390625 C 4.863281 -2.148438 4.910156 -1.921875 4.984375 -1.703125 C 5.066406 -1.492188 5.191406 -1.316406 5.359375 -1.171875 C 5.535156 -1.023438 5.773438 -0.953125 6.078125 -0.953125 C 6.453125 -0.953125 6.765625 -1.09375 7.015625 -1.375 C 7.273438 -1.664062 7.488281 -1.976562 7.65625 -2.3125 L 8.78125 -1.171875 C 8 -0.390625 7.113281 0 6.125 0 C 5.707031 0 5.296875 -0.0703125 4.890625 -0.21875 C 4.492188 -0.363281 4.140625 -0.582031 3.828125 -0.875 C 3.523438 -1.164062 3.273438 -1.539062 3.078125 -2 C 2.890625 -2.46875 2.796875 -3.015625 2.796875 -3.640625 L 2.796875 -11 Z M 0.71875 -11 "/></g></g></g><g fill="#025492" fill-opacity="1"><g transform="translate(572.903518, 362.509167)"><g><path d="M 1.90625 -11.953125 L 1.90625 -4.1875 C 1.90625 -3.894531 1.929688 -3.5 1.984375 -3 C 2.046875 -2.5 2.210938 -2.003906 2.484375 -1.515625 C 2.753906 -1.023438 3.179688 -0.601562 3.765625 -0.25 C 4.347656 0.101562 5.164062 0.28125 6.21875 0.28125 C 6.675781 0.300781 7.179688 0.210938 7.734375 0.015625 C 8.285156 -0.179688 8.835938 -0.5625 9.390625 -1.125 L 9.78125 -1.5 L 9.875 -1.5 L 9.875 0 L 11.90625 0 L 11.90625 -11.953125 L 9.875 -11.953125 L 9.875 -4.546875 C 9.875 -3.921875 9.785156 -3.382812 9.609375 -2.9375 C 9.429688 -2.488281 9.195312 -2.117188 8.90625 -1.828125 C 8.625 -1.535156 8.289062 -1.316406 7.90625 -1.171875 C 7.53125 -1.023438 7.132812 -0.953125 6.71875 -0.953125 C 6.050781 -0.953125 5.53125 -1.082031 5.15625 -1.34375 C 4.78125 -1.613281 4.5 -1.921875 4.3125 -2.265625 C 4.132812 -2.617188 4.023438 -2.96875 3.984375 -3.3125 C 3.953125 -3.65625 3.9375 -3.90625 3.9375 -4.0625 L 3.9375 -11.953125 Z M 1.90625 -11.953125 "/></g></g></g><g fill="#025492" fill-opacity="1"><g transform="translate(590.236464, 362.509167)"><g><path d="M 1.90625 -11.953125 L 1.90625 0 L 3.9375 0 L 3.9375 -7.21875 C 3.9375 -7.875 4.015625 -8.425781 4.171875 -8.875 C 4.328125 -9.332031 4.519531 -9.703125 4.75 -9.984375 C 4.988281 -10.273438 5.25 -10.484375 5.53125 -10.609375 C 5.820312 -10.742188 6.109375 -10.8125 6.390625 -10.8125 C 6.753906 -10.8125 7.085938 -10.691406 7.390625 -10.453125 C 7.703125 -10.210938 7.929688 -9.988281 8.078125 -9.78125 L 8.890625 -11.265625 C 8.742188 -11.453125 8.570312 -11.609375 8.375 -11.734375 C 8.175781 -11.859375 7.976562 -11.957031 7.78125 -12.03125 C 7.582031 -12.101562 7.398438 -12.148438 7.234375 -12.171875 C 7.066406 -12.203125 6.941406 -12.21875 6.859375 -12.21875 C 6.191406 -12.21875 5.632812 -12.03125 5.1875 -11.65625 C 4.738281 -11.289062 4.375 -10.753906 4.09375 -10.046875 L 3.9375 -10.046875 L 3.9375 -11.953125 Z M 1.90625 -11.953125 "/></g></g></g><g fill="#025492" fill-opacity="1"><g transform="translate(602.812078, 362.509167)"><g><path d="M 12.53125 -5.453125 L 12.53125 -5.953125 C 12.53125 -7.015625 12.378906 -7.9375 12.078125 -8.71875 C 11.773438 -9.5 11.363281 -10.144531 10.84375 -10.65625 C 10.320312 -11.164062 9.71875 -11.546875 9.03125 -11.796875 C 8.351562 -12.054688 7.628906 -12.1875 6.859375 -12.1875 C 6.046875 -12.1875 5.296875 -12.046875 4.609375 -11.765625 C 3.921875 -11.492188 3.320312 -11.085938 2.8125 -10.546875 C 2.3125 -10.015625 1.914062 -9.367188 1.625 -8.609375 C 1.332031 -7.859375 1.1875 -7.003906 1.1875 -6.046875 C 1.1875 -5.253906 1.3125 -4.476562 1.5625 -3.71875 C 1.8125 -2.957031 2.1875 -2.273438 2.6875 -1.671875 C 3.1875 -1.078125 3.820312 -0.601562 4.59375 -0.25 C 5.375 0.101562 6.289062 0.28125 7.34375 0.28125 C 8.363281 0.28125 9.300781 0.101562 10.15625 -0.25 C 11.019531 -0.601562 11.769531 -1.117188 12.40625 -1.796875 L 11.640625 -2.5625 C 11.304688 -2.269531 10.988281 -2.003906 10.6875 -1.765625 C 10.394531 -1.523438 10.097656 -1.328125 9.796875 -1.171875 C 9.492188 -1.015625 9.175781 -0.890625 8.84375 -0.796875 C 8.519531 -0.710938 8.160156 -0.671875 7.765625 -0.671875 C 7.316406 -0.671875 6.84375 -0.738281 6.34375 -0.875 C 5.84375 -1.007812 5.375 -1.25 4.9375 -1.59375 C 4.507812 -1.945312 4.148438 -2.4375 3.859375 -3.0625 C 3.578125 -3.6875 3.4375 -4.484375 3.4375 -5.453125 Z M 3.4375 -6.40625 C 3.4375 -7.039062 3.503906 -7.65625 3.640625 -8.25 C 3.773438 -8.851562 3.984375 -9.382812 4.265625 -9.84375 C 4.546875 -10.3125 4.898438 -10.679688 5.328125 -10.953125 C 5.753906 -11.234375 6.265625 -11.375 6.859375 -11.375 C 7.992188 -11.375 8.875 -10.929688 9.5 -10.046875 C 10.132812 -9.160156 10.453125 -7.945312 10.453125 -6.40625 Z M 3.4375 -6.40625 "/></g></g></g></svg>