<svg xmlns="http://www.w3.org/2000/svg" xmlns:xlink="http://www.w3.org/1999/xlink" width="1200" zoomAndPan="magnify" viewBox="0 0 900 599.999999" height="800" preserveAspectRatio="xMidYMid meet" version="1.0"><defs><g/><clipPath id="id1"><path d="M 0 60 L 900 60 L 900 492 L 0 492 Z M 0 60 " clip-rule="nonzero"/></clipPath><clipPath id="id2"><path d="M 238.71875 54.199219 L 699.21875 54.199219 L 699.21875 514.699219 L 238.71875 514.699219 Z M 238.71875 54.199219 " clip-rule="nonzero"/></clipPath><clipPath id="id3"><path d="M 118.296875 42.324219 L 605.796875 42.324219 L 605.796875 529.824219 L 118.296875 529.824219 Z M 118.296875 42.324219 " clip-rule="nonzero"/></clipPath></defs><rect x="-90" width="1080" fill="#ffffff" y="-60" height="719.999999" fill-opacity="1"/><rect x="-90" width="1080" fill="#ffffff" y="-60" height="719.999999" fill-opacity="1"/><rect x="-90" width="1080" fill="#ffffff" y="-60" height="719.999999" fill-opacity="1"/><rect x="-90" width="1080" fill="#ffffff" y="-60" height="719.999999" fill-opacity="1"/><g clip-path="url(#id1)"><path fill="#025492" d="M 1010.464844 247.492188 C 1005.570312 244.3125 1021.972656 240.886719 1029.316406 234.523438 C 1036.660156 227.914062 984.515625 232.808594 977.90625 226.445312 C 971.296875 219.835938 1013.894531 223.265625 1025.886719 221.550781 C 1037.882812 219.835938 1015.363281 200.257812 1004.101562 190.46875 C 992.59375 180.679688 1005.816406 177.5 1010.710938 165.507812 C 1014.382812 156.695312 994.554688 160.367188 984.273438 163.304688 C 993.574219 159.144531 1008.753906 150.578125 999.449219 148.128906 C 986.476562 144.949219 1015.851562 136.628906 1023.929688 130.265625 C 1032.007812 123.902344 1015.851562 122.1875 1023.195312 110.6875 C 1030.539062 99.183594 976.683594 112.398438 993.085938 107.503906 C 1009.488281 102.609375 1030.539062 76.421875 1020.746094 81.316406 C 1010.957031 86.214844 997.980469 79.605469 1006.058594 73.242188 C 1014.136719 66.632812 996.265625 53.664062 976.683594 63.453125 C 957.097656 73.242188 542.644531 120.476562 534.320312 115.582031 C 526.242188 110.6875 557.089844 87.925781 522.816406 87.925781 C 488.542969 87.925781 192.820312 134.179688 192.820312 134.179688 L 179.84375 134.179688 L -151.621094 271.230469 C -173.40625 280.285156 -123.957031 278.574219 -140.113281 288.363281 C -156.273438 298.152344 -141.828125 316.019531 -125.425781 307.941406 C -109.023438 299.867188 -148.191406 339.023438 -132.035156 337.308594 C -115.632812 335.597656 -159.699219 381.363281 -151.621094 391.152344 C -143.542969 400.941406 -110.738281 374.753906 -127.140625 423.699219 C -143.542969 472.648438 -117.347656 506.910156 -96.050781 484.148438 C -74.753906 461.390625 6.769531 451.601562 34.429688 446.707031 C 62.09375 441.8125 135.535156 433.734375 70.417969 433.734375 C 5.300781 433.734375 -86.257812 474.359375 18.273438 430.308594 C 122.804688 386.257812 432.726562 474.359375 434.441406 464.570312 C 436.15625 454.78125 597.726562 461.390625 628.570312 457.964844 C 659.417969 454.539062 703.726562 449.886719 689.039062 443.28125 C 674.347656 436.671875 760.765625 433.492188 773.984375 428.839844 C 786.960938 424.191406 809.972656 398.492188 793.570312 405.589844 C 777.167969 412.6875 614.128906 444.75 537.257812 418.5625 C 500.78125 406.082031 599.683594 401.183594 714.253906 399.226562 C 682.429688 403.386719 561.496094 409.75 577.898438 412.199219 C 593.808594 414.644531 698.339844 409.261719 709.601562 405.589844 C 715.722656 403.632812 726.738281 400.453125 729.429688 398.984375 C 761.746094 398.492188 795.039062 398.25 826.617188 398.25 C 843.507812 399.472656 865.542969 400.941406 864.5625 405.347656 C 862.605469 413.421875 891.980469 412.441406 892.714844 405.347656 C 892.960938 402.898438 884.882812 400.207031 873.375 398.25 C 939.71875 398.25 989.902344 398.984375 992.839844 398.984375 C 1002.632812 398.984375 1010.710938 389.195312 1009.242188 379.402344 C 1007.527344 369.613281 1017.320312 354.929688 1015.851562 343.429688 C 1014.136719 331.925781 970.074219 330.457031 994.554688 327.03125 C 1019.035156 323.847656 1010.957031 314.058594 1020.746094 310.632812 C 1030.539062 307.207031 1015.851562 292.769531 1025.644531 286.160156 C 1035.4375 279.550781 1015.851562 276.371094 1030.296875 270.742188 C 1044.492188 265.601562 1015.363281 250.917969 1010.464844 247.492188 Z M 1010.464844 247.492188 " fill-opacity="1" fill-rule="nonzero"/></g><path fill="#025492" d="M -61.777344 218.125 C -61.777344 218.125 186.210938 110.441406 261.363281 99.917969 C 336.519531 89.394531 297.351562 71.285156 241.78125 90.863281 C 186.210938 110.441406 -69.855469 211.515625 -87.972656 218.125 C -105.84375 224.730469 -87.480469 229.136719 -61.777344 218.125 Z M -61.777344 218.125 " fill-opacity="1" fill-rule="nonzero"/><path fill="#025492" d="M 572.265625 92.574219 C 580.34375 89.394531 595.03125 81.074219 608.253906 77.890625 C 621.226562 74.710938 596.011719 70.550781 582.546875 77.890625 C 569.082031 85.234375 554.886719 77.648438 556.84375 82.296875 C 559.292969 88.171875 564.1875 95.757812 572.265625 92.574219 Z M 572.265625 92.574219 " fill-opacity="1" fill-rule="nonzero"/><path fill="#025492" d="M 845.222656 428.351562 C 828.085938 423.945312 732.859375 439.851562 716.699219 444.257812 C 713.027344 445.238281 711.316406 452.824219 724.042969 448.664062 C 736.773438 444.503906 820.742188 438.386719 836.65625 441.320312 C 852.566406 444.257812 862.359375 432.757812 845.222656 428.351562 Z M 845.222656 428.351562 " fill-opacity="1" fill-rule="nonzero"/><path fill="#025492" d="M 363.449219 460.410156 C 348.023438 455.515625 213.871094 430.554688 196.734375 427.863281 C 188.902344 426.636719 201.878906 433.492188 222.683594 436.425781 C 243.492188 439.363281 326.726562 456.25 334.070312 462.613281 C 341.414062 468.976562 351.207031 471.425781 358.550781 471.914062 C 365.894531 472.402344 351.207031 467.019531 351.207031 467.019531 L 334.804688 457.71875 L 365.652344 468.730469 L 373.972656 465.796875 C 373.730469 466.039062 378.871094 465.304688 363.449219 460.410156 Z M 363.449219 460.410156 " fill-opacity="1" fill-rule="nonzero"/><g clip-path="url(#id2)"><path fill="#f8cf40" d="M 468.96875 514.699219 C 342.007812 514.699219 238.71875 411.410156 238.71875 284.449219 C 238.71875 157.488281 342.007812 54.199219 468.96875 54.199219 C 595.929688 54.199219 699.21875 157.488281 699.21875 284.449219 C 699.21875 411.410156 595.929688 514.699219 468.96875 514.699219 Z M 468.96875 60.105469 C 345.261719 60.105469 244.621094 160.746094 244.621094 284.449219 C 244.621094 408.15625 345.261719 508.796875 468.96875 508.796875 C 592.671875 508.796875 693.3125 408.15625 693.3125 284.449219 C 693.3125 160.746094 592.671875 60.105469 468.96875 60.105469 Z M 468.96875 60.105469 " fill-opacity="1" fill-rule="nonzero"/></g><g clip-path="url(#id3)"><path fill="#f8cf40" d="M 362.046875 529.824219 C 227.640625 529.824219 118.296875 420.476562 118.296875 286.074219 C 118.296875 151.667969 227.640625 42.324219 362.046875 42.324219 C 496.449219 42.324219 605.796875 151.667969 605.796875 286.074219 C 605.796875 420.476562 496.449219 529.824219 362.046875 529.824219 Z M 362.046875 48.574219 C 231.085938 48.574219 124.546875 155.117188 124.546875 286.074219 C 124.546875 417.03125 231.085938 523.574219 362.046875 523.574219 C 493.003906 523.574219 599.546875 417.03125 599.546875 286.074219 C 599.546875 155.117188 493.003906 48.574219 362.046875 48.574219 Z M 362.046875 48.574219 " fill-opacity="1" fill-rule="nonzero"/></g><g fill="#f8cf40" fill-opacity="1"><g transform="translate(277.568707, 357.654922)"><g><path d="M 77.96875 -179.9375 C 87.539062 -179.9375 96.894531 -178.546875 106.03125 -175.765625 C 115.175781 -172.984375 121.960938 -170.234375 126.390625 -167.515625 L 132.8125 -163.234375 L 116.53125 -131.109375 C 115.25 -131.960938 113.460938 -133.066406 111.171875 -134.421875 C 108.890625 -135.773438 104.609375 -137.59375 98.328125 -139.875 C 92.046875 -142.164062 86.191406 -143.3125 80.765625 -143.3125 C 74.046875 -143.3125 68.863281 -141.882812 65.21875 -139.03125 C 61.582031 -136.175781 59.765625 -132.316406 59.765625 -127.453125 C 59.765625 -125.023438 60.617188 -122.773438 62.328125 -120.703125 C 64.046875 -118.640625 66.972656 -116.425781 71.109375 -114.0625 C 75.253906 -111.707031 78.898438 -109.816406 82.046875 -108.390625 C 85.191406 -106.960938 90.046875 -104.820312 96.609375 -101.96875 C 108.035156 -97.113281 117.78125 -90.507812 125.84375 -82.15625 C 133.914062 -73.800781 137.953125 -64.335938 137.953125 -53.765625 C 137.953125 -43.628906 136.128906 -34.773438 132.484375 -27.203125 C 128.847656 -19.640625 123.851562 -13.710938 117.5 -9.421875 C 111.144531 -5.140625 104.109375 -1.960938 96.390625 0.109375 C 88.679688 2.179688 80.328125 3.21875 71.328125 3.21875 C 63.617188 3.21875 56.050781 2.429688 48.625 0.859375 C 41.195312 -0.710938 34.984375 -2.675781 29.984375 -5.03125 C 24.992188 -7.382812 20.5 -9.703125 16.5 -11.984375 C 12.5 -14.273438 9.570312 -16.207031 7.71875 -17.78125 L 4.921875 -20.140625 L 25.0625 -53.984375 C 26.78125 -52.554688 29.132812 -50.734375 32.125 -48.515625 C 35.125 -46.304688 40.441406 -43.34375 48.078125 -39.625 C 55.722656 -35.914062 62.472656 -34.0625 68.328125 -34.0625 C 85.328125 -34.0625 93.828125 -39.84375 93.828125 -51.40625 C 93.828125 -53.832031 93.21875 -56.082031 92 -58.15625 C 90.789062 -60.226562 88.648438 -62.300781 85.578125 -64.375 C 82.503906 -66.445312 79.789062 -68.085938 77.4375 -69.296875 C 75.082031 -70.515625 71.226562 -72.375 65.875 -74.875 C 60.519531 -77.375 56.554688 -79.265625 53.984375 -80.546875 C 43.273438 -85.828125 34.988281 -92.429688 29.125 -100.359375 C 23.269531 -108.285156 20.34375 -116.816406 20.34375 -125.953125 C 20.34375 -141.804688 26.195312 -154.765625 37.90625 -164.828125 C 49.625 -174.898438 62.976562 -179.9375 77.96875 -179.9375 Z M 77.96875 -179.9375 "/></g></g></g><g fill="#f8cf40" fill-opacity="1"><g transform="translate(421.510083, 357.654922)"><g><path d="M 43.921875 -125.75 L 12.203125 -141.171875 C 12.492188 -142.171875 12.925781 -143.5625 13.5 -145.34375 C 14.070312 -147.132812 15.785156 -150.242188 18.640625 -154.671875 C 21.492188 -159.097656 24.847656 -163.023438 28.703125 -166.453125 C 32.554688 -169.878906 38.195312 -172.984375 45.625 -175.765625 C 53.050781 -178.546875 61.40625 -179.9375 70.6875 -179.9375 C 87.539062 -179.9375 101.429688 -175.117188 112.359375 -165.484375 C 123.285156 -155.847656 128.75 -143.53125 128.75 -128.53125 C 128.75 -114.53125 123.535156 -103.460938 113.109375 -95.328125 C 128.097656 -86.191406 135.59375 -72.695312 135.59375 -54.84375 C 135.59375 -37.988281 129.414062 -24.097656 117.0625 -13.171875 C 104.71875 -2.242188 89.046875 3.21875 70.046875 3.21875 C 59.910156 3.21875 50.695312 1.71875 42.40625 -1.28125 C 34.125 -4.28125 27.660156 -7.882812 23.015625 -12.09375 C 18.378906 -16.3125 14.523438 -20.5625 11.453125 -24.84375 C 8.390625 -29.132812 6.285156 -32.78125 5.140625 -35.78125 L 3.640625 -40.265625 L 40.921875 -58.484375 C 40.921875 -57.765625 41.023438 -56.796875 41.234375 -55.578125 C 41.453125 -54.367188 42.203125 -52.191406 43.484375 -49.046875 C 44.773438 -45.910156 46.347656 -43.164062 48.203125 -40.8125 C 50.054688 -38.457031 52.875 -36.3125 56.65625 -34.375 C 60.445312 -32.445312 64.835938 -31.484375 69.828125 -31.484375 C 77.398438 -31.484375 83.539062 -33.554688 88.25 -37.703125 C 92.96875 -41.847656 95.328125 -47.5625 95.328125 -54.84375 C 95.328125 -62.40625 92.863281 -68.613281 87.9375 -73.46875 C 83.007812 -78.332031 76.972656 -80.765625 69.828125 -80.765625 L 62.125 -79.46875 L 62.125 -105.828125 L 70.90625 -105.828125 C 76.476562 -105.828125 81.40625 -107.96875 85.6875 -112.25 C 89.96875 -116.53125 92.109375 -121.816406 92.109375 -128.109375 C 92.109375 -133.671875 89.929688 -138.304688 85.578125 -142.015625 C 81.222656 -145.734375 76.117188 -147.59375 70.265625 -147.59375 C 66.117188 -147.59375 62.367188 -146.84375 59.015625 -145.34375 C 55.660156 -143.84375 53.085938 -142.019531 51.296875 -139.875 C 49.515625 -137.738281 48.015625 -135.597656 46.796875 -133.453125 C 45.585938 -131.316406 44.84375 -129.535156 44.5625 -128.109375 Z M 43.921875 -125.75 "/></g></g></g><g fill="#f8cf40" fill-opacity="1"><g transform="translate(563.938609, 357.654922)"><g/></g></g><g fill="#025492" fill-opacity="1"><g transform="translate(88.434708, 577.710283)"><g><path d="M 6.234375 -36.328125 L 6.234375 0 L 10.953125 0 L 10.953125 -18.0625 L 27.046875 -18.0625 L 27.046875 -20.453125 L 10.953125 -20.453125 L 10.953125 -33.484375 L 29.6875 -33.484375 L 29.6875 -36.328125 Z M 6.234375 -36.328125 "/></g></g></g><g fill="#025492" fill-opacity="1"><g transform="translate(127.155287, 577.710283)"><g><path d="M 29.484375 -12.921875 C 29.484375 -11.117188 29.171875 -9.394531 28.546875 -7.75 C 27.921875 -6.113281 27.03125 -4.671875 25.875 -3.421875 C 24.71875 -2.179688 23.316406 -1.195312 21.671875 -0.46875 C 20.023438 0.257812 18.179688 0.625 16.140625 0.625 C 14.066406 0.625 12.191406 0.253906 10.515625 -0.484375 C 8.835938 -1.234375 7.414062 -2.226562 6.25 -3.46875 C 5.09375 -4.71875 4.191406 -6.164062 3.546875 -7.8125 C 2.910156 -9.457031 2.59375 -11.160156 2.59375 -12.921875 C 2.59375 -14.722656 2.910156 -16.445312 3.546875 -18.09375 C 4.191406 -19.738281 5.09375 -21.179688 6.25 -22.421875 C 7.414062 -23.671875 8.835938 -24.664062 10.515625 -25.40625 C 12.191406 -26.15625 14.066406 -26.53125 16.140625 -26.53125 C 18.179688 -26.53125 20.023438 -26.15625 21.671875 -25.40625 C 23.316406 -24.664062 24.71875 -23.671875 25.875 -22.421875 C 27.03125 -21.179688 27.921875 -19.738281 28.546875 -18.09375 C 29.171875 -16.445312 29.484375 -14.722656 29.484375 -12.921875 Z M 24.546875 -12.921875 C 24.546875 -15.347656 24.285156 -17.3125 23.765625 -18.8125 C 23.253906 -20.320312 22.582031 -21.488281 21.75 -22.3125 C 20.914062 -23.144531 20 -23.707031 19 -24 C 18 -24.300781 17.03125 -24.453125 16.09375 -24.453125 C 15.15625 -24.453125 14.179688 -24.300781 13.171875 -24 C 12.171875 -23.707031 11.25 -23.144531 10.40625 -22.3125 C 9.5625 -21.488281 8.867188 -20.320312 8.328125 -18.8125 C 7.796875 -17.3125 7.53125 -15.347656 7.53125 -12.921875 C 7.53125 -10.535156 7.796875 -8.585938 8.328125 -7.078125 C 8.867188 -5.578125 9.5625 -4.410156 10.40625 -3.578125 C 11.25 -2.742188 12.171875 -2.179688 13.171875 -1.890625 C 14.179688 -1.597656 15.15625 -1.453125 16.09375 -1.453125 C 17.03125 -1.453125 18 -1.597656 19 -1.890625 C 20 -2.179688 20.914062 -2.742188 21.75 -3.578125 C 22.582031 -4.410156 23.253906 -5.578125 23.765625 -7.078125 C 24.285156 -8.585938 24.546875 -10.535156 24.546875 -12.921875 Z M 24.546875 -12.921875 "/></g></g></g><g fill="#025492" fill-opacity="1"><g transform="translate(166.706295, 577.710283)"><g><path d="M 4.15625 -25.953125 L 4.15625 0 L 8.5625 0 L 8.5625 -15.671875 C 8.5625 -17.085938 8.722656 -18.289062 9.046875 -19.28125 C 9.378906 -20.269531 9.804688 -21.070312 10.328125 -21.6875 C 10.847656 -22.3125 11.421875 -22.765625 12.046875 -23.046875 C 12.671875 -23.328125 13.273438 -23.46875 13.859375 -23.46875 C 14.648438 -23.46875 15.382812 -23.207031 16.0625 -22.6875 C 16.738281 -22.164062 17.234375 -21.679688 17.546875 -21.234375 L 19.3125 -24.453125 C 19 -24.867188 18.625 -25.210938 18.1875 -25.484375 C 17.757812 -25.765625 17.328125 -25.984375 16.890625 -26.140625 C 16.460938 -26.296875 16.066406 -26.398438 15.703125 -26.453125 C 15.335938 -26.503906 15.066406 -26.53125 14.890625 -26.53125 C 13.441406 -26.53125 12.234375 -26.128906 11.265625 -25.328125 C 10.296875 -24.535156 9.5 -23.359375 8.875 -21.796875 L 8.5625 -21.796875 L 8.5625 -25.953125 Z M 4.15625 -25.953125 "/></g></g></g><g fill="#025492" fill-opacity="1"><g transform="translate(194.008349, 577.710283)"><g/></g></g><g fill="#025492" fill-opacity="1"><g transform="translate(219.649534, 577.710283)"><g><path d="M 1.5625 -36.328125 L 14.125 -13.75 L 14.125 0 L 18.84375 0 L 18.84375 -14.21875 L 31.609375 -36.328125 L 28.8125 -36.328125 L 17.703125 -17.1875 L 17.5 -17.1875 L 6.90625 -36.328125 Z M 1.5625 -36.328125 "/></g></g></g><g fill="#025492" fill-opacity="1"><g transform="translate(260.290501, 577.710283)"><g><path d="M 29.484375 -12.921875 C 29.484375 -11.117188 29.171875 -9.394531 28.546875 -7.75 C 27.921875 -6.113281 27.03125 -4.671875 25.875 -3.421875 C 24.71875 -2.179688 23.316406 -1.195312 21.671875 -0.46875 C 20.023438 0.257812 18.179688 0.625 16.140625 0.625 C 14.066406 0.625 12.191406 0.253906 10.515625 -0.484375 C 8.835938 -1.234375 7.414062 -2.226562 6.25 -3.46875 C 5.09375 -4.71875 4.191406 -6.164062 3.546875 -7.8125 C 2.910156 -9.457031 2.59375 -11.160156 2.59375 -12.921875 C 2.59375 -14.722656 2.910156 -16.445312 3.546875 -18.09375 C 4.191406 -19.738281 5.09375 -21.179688 6.25 -22.421875 C 7.414062 -23.671875 8.835938 -24.664062 10.515625 -25.40625 C 12.191406 -26.15625 14.066406 -26.53125 16.140625 -26.53125 C 18.179688 -26.53125 20.023438 -26.15625 21.671875 -25.40625 C 23.316406 -24.664062 24.71875 -23.671875 25.875 -22.421875 C 27.03125 -21.179688 27.921875 -19.738281 28.546875 -18.09375 C 29.171875 -16.445312 29.484375 -14.722656 29.484375 -12.921875 Z M 24.546875 -12.921875 C 24.546875 -15.347656 24.285156 -17.3125 23.765625 -18.8125 C 23.253906 -20.320312 22.582031 -21.488281 21.75 -22.3125 C 20.914062 -23.144531 20 -23.707031 19 -24 C 18 -24.300781 17.03125 -24.453125 16.09375 -24.453125 C 15.15625 -24.453125 14.179688 -24.300781 13.171875 -24 C 12.171875 -23.707031 11.25 -23.144531 10.40625 -22.3125 C 9.5625 -21.488281 8.867188 -20.320312 8.328125 -18.8125 C 7.796875 -17.3125 7.53125 -15.347656 7.53125 -12.921875 C 7.53125 -10.535156 7.796875 -8.585938 8.328125 -7.078125 C 8.867188 -5.578125 9.5625 -4.410156 10.40625 -3.578125 C 11.25 -2.742188 12.171875 -2.179688 13.171875 -1.890625 C 14.179688 -1.597656 15.15625 -1.453125 16.09375 -1.453125 C 17.03125 -1.453125 18 -1.597656 19 -1.890625 C 20 -2.179688 20.914062 -2.742188 21.75 -3.578125 C 22.582031 -4.410156 23.253906 -5.578125 23.765625 -7.078125 C 24.285156 -8.585938 24.546875 -10.535156 24.546875 -12.921875 Z M 24.546875 -12.921875 "/></g></g></g><g fill="#025492" fill-opacity="1"><g transform="translate(299.841498, 577.710283)"><g><path d="M 4.15625 -25.953125 L 4.15625 -9.078125 C 4.15625 -8.460938 4.210938 -7.609375 4.328125 -6.515625 C 4.453125 -5.421875 4.804688 -4.347656 5.390625 -3.296875 C 5.984375 -2.242188 6.910156 -1.328125 8.171875 -0.546875 C 9.429688 0.234375 11.207031 0.625 13.5 0.625 C 14.5 0.65625 15.59375 0.453125 16.78125 0.015625 C 17.976562 -0.410156 19.1875 -1.226562 20.40625 -2.4375 L 21.234375 -3.265625 L 21.4375 -3.265625 L 21.4375 0 L 25.84375 0 L 25.84375 -25.953125 L 21.4375 -25.953125 L 21.4375 -9.859375 C 21.4375 -8.515625 21.242188 -7.359375 20.859375 -6.390625 C 20.484375 -5.421875 19.984375 -4.613281 19.359375 -3.96875 C 18.734375 -3.332031 18.003906 -2.859375 17.171875 -2.546875 C 16.347656 -2.234375 15.484375 -2.078125 14.578125 -2.078125 C 13.128906 -2.078125 12 -2.363281 11.1875 -2.9375 C 10.375 -3.507812 9.765625 -4.175781 9.359375 -4.9375 C 8.960938 -5.695312 8.726562 -6.445312 8.65625 -7.1875 C 8.59375 -7.9375 8.5625 -8.484375 8.5625 -8.828125 L 8.5625 -25.953125 Z M 4.15625 -25.953125 "/></g></g></g><g fill="#025492" fill-opacity="1"><g transform="translate(337.472119, 577.710283)"><g><path d="M 4.15625 -25.953125 L 4.15625 0 L 8.5625 0 L 8.5625 -15.671875 C 8.5625 -17.085938 8.722656 -18.289062 9.046875 -19.28125 C 9.378906 -20.269531 9.804688 -21.070312 10.328125 -21.6875 C 10.847656 -22.3125 11.421875 -22.765625 12.046875 -23.046875 C 12.671875 -23.328125 13.273438 -23.46875 13.859375 -23.46875 C 14.648438 -23.46875 15.382812 -23.207031 16.0625 -22.6875 C 16.738281 -22.164062 17.234375 -21.679688 17.546875 -21.234375 L 19.3125 -24.453125 C 19 -24.867188 18.625 -25.210938 18.1875 -25.484375 C 17.757812 -25.765625 17.328125 -25.984375 16.890625 -26.140625 C 16.460938 -26.296875 16.066406 -26.398438 15.703125 -26.453125 C 15.335938 -26.503906 15.066406 -26.53125 14.890625 -26.53125 C 13.441406 -26.53125 12.234375 -26.128906 11.265625 -25.328125 C 10.296875 -24.535156 9.5 -23.359375 8.875 -21.796875 L 8.5625 -21.796875 L 8.5625 -25.953125 Z M 4.15625 -25.953125 "/></g></g></g><g fill="#025492" fill-opacity="1"><g transform="translate(364.774173, 577.710283)"><g/></g></g><g fill="#025492" fill-opacity="1"><g transform="translate(390.415346, 577.710283)"><g><path d="M 6.234375 0 L 19.25 0 C 21.570312 0 23.53125 -0.300781 25.125 -0.90625 C 26.71875 -1.507812 28 -2.296875 28.96875 -3.265625 C 29.9375 -4.234375 30.632812 -5.332031 31.0625 -6.5625 C 31.5 -7.789062 31.71875 -9.03125 31.71875 -10.28125 C 31.71875 -12.25 31.289062 -13.820312 30.4375 -15 C 29.59375 -16.175781 28.582031 -17.078125 27.40625 -17.703125 C 26.226562 -18.328125 25.015625 -18.738281 23.765625 -18.9375 C 22.523438 -19.144531 21.523438 -19.269531 20.765625 -19.3125 L 20.765625 -19.515625 C 21.972656 -19.515625 23.113281 -19.75 24.1875 -20.21875 C 25.257812 -20.6875 26.203125 -21.289062 27.015625 -22.03125 C 27.828125 -22.78125 28.472656 -23.644531 28.953125 -24.625 C 29.441406 -25.613281 29.6875 -26.660156 29.6875 -27.765625 C 29.6875 -28.734375 29.476562 -29.71875 29.0625 -30.71875 C 28.644531 -31.726562 28.015625 -32.644531 27.171875 -33.46875 C 26.328125 -34.300781 25.238281 -34.984375 23.90625 -35.515625 C 22.570312 -36.054688 21.003906 -36.328125 19.203125 -36.328125 L 6.234375 -36.328125 Z M 10.953125 -2.28125 L 10.953125 -18.171875 L 16.65625 -18.171875 C 18.351562 -18.171875 19.820312 -17.941406 21.0625 -17.484375 C 22.3125 -17.035156 23.34375 -16.429688 24.15625 -15.671875 C 24.96875 -14.910156 25.570312 -14.023438 25.96875 -13.015625 C 26.375 -12.015625 26.578125 -10.960938 26.578125 -9.859375 C 26.578125 -8.648438 26.359375 -7.578125 25.921875 -6.640625 C 25.492188 -5.710938 24.914062 -4.914062 24.1875 -4.25 C 23.457031 -3.59375 22.597656 -3.097656 21.609375 -2.765625 C 20.628906 -2.441406 19.585938 -2.28125 18.484375 -2.28125 Z M 10.953125 -20.453125 L 10.953125 -34.046875 L 17.28125 -34.046875 C 18.632812 -34.046875 19.785156 -33.851562 20.734375 -33.46875 C 21.679688 -33.09375 22.457031 -32.59375 23.0625 -31.96875 C 23.675781 -31.351562 24.117188 -30.644531 24.390625 -29.84375 C 24.671875 -29.050781 24.8125 -28.253906 24.8125 -27.453125 C 24.8125 -26.453125 24.613281 -25.519531 24.21875 -24.65625 C 23.820312 -23.789062 23.265625 -23.046875 22.546875 -22.421875 C 21.835938 -21.796875 21.023438 -21.3125 20.109375 -20.96875 C 19.191406 -20.625 18.21875 -20.453125 17.1875 -20.453125 Z M 10.953125 -20.453125 "/></g></g></g><g fill="#025492" fill-opacity="1"><g transform="translate(432.198159, 577.710283)"><g><path d="M 27.203125 -11.828125 L 27.203125 -12.921875 C 27.203125 -15.242188 26.867188 -17.25 26.203125 -18.9375 C 25.546875 -20.632812 24.65625 -22.035156 23.53125 -23.140625 C 22.414062 -24.253906 21.113281 -25.085938 19.625 -25.640625 C 18.132812 -26.191406 16.554688 -26.46875 14.890625 -26.46875 C 13.128906 -26.46875 11.503906 -26.164062 10.015625 -25.5625 C 8.523438 -24.957031 7.226562 -24.070312 6.125 -22.90625 C 5.019531 -21.75 4.15625 -20.347656 3.53125 -18.703125 C 2.90625 -17.066406 2.59375 -15.207031 2.59375 -13.125 C 2.59375 -11.394531 2.859375 -9.707031 3.390625 -8.0625 C 3.929688 -6.425781 4.742188 -4.957031 5.828125 -3.65625 C 6.921875 -2.363281 8.304688 -1.328125 9.984375 -0.546875 C 11.671875 0.234375 13.65625 0.625 15.9375 0.625 C 18.144531 0.625 20.179688 0.234375 22.046875 -0.546875 C 23.921875 -1.328125 25.550781 -2.441406 26.9375 -3.890625 L 25.28125 -5.546875 C 24.550781 -4.929688 23.863281 -4.363281 23.21875 -3.84375 C 22.582031 -3.320312 21.9375 -2.890625 21.28125 -2.546875 C 20.625 -2.203125 19.941406 -1.929688 19.234375 -1.734375 C 18.523438 -1.546875 17.738281 -1.453125 16.875 -1.453125 C 15.90625 -1.453125 14.875 -1.597656 13.78125 -1.890625 C 12.6875 -2.179688 11.671875 -2.707031 10.734375 -3.46875 C 9.804688 -4.238281 9.03125 -5.296875 8.40625 -6.640625 C 7.78125 -7.992188 7.46875 -9.722656 7.46875 -11.828125 Z M 7.46875 -13.90625 C 7.46875 -15.289062 7.613281 -16.628906 7.90625 -17.921875 C 8.207031 -19.222656 8.660156 -20.375 9.265625 -21.375 C 9.867188 -22.382812 10.640625 -23.191406 11.578125 -23.796875 C 12.515625 -24.398438 13.617188 -24.703125 14.890625 -24.703125 C 17.347656 -24.703125 19.257812 -23.742188 20.625 -21.828125 C 22 -19.910156 22.6875 -17.269531 22.6875 -13.90625 Z M 7.46875 -13.90625 "/></g></g></g><g fill="#025492" fill-opacity="1"><g transform="translate(469.465453, 577.710283)"><g><path d="M 1.5625 -23.875 L 1.5625 -25.953125 L 6.078125 -25.953125 L 6.078125 -33.953125 L 10.484375 -33.953125 L 10.484375 -25.953125 L 16.765625 -25.953125 L 16.765625 -23.875 L 10.484375 -23.875 L 10.484375 -6.640625 C 10.484375 -6.222656 10.5 -5.742188 10.53125 -5.203125 C 10.570312 -4.671875 10.675781 -4.171875 10.84375 -3.703125 C 11.019531 -3.242188 11.289062 -2.859375 11.65625 -2.546875 C 12.019531 -2.234375 12.53125 -2.078125 13.1875 -2.078125 C 14.019531 -2.078125 14.710938 -2.382812 15.265625 -3 C 15.816406 -3.625 16.265625 -4.300781 16.609375 -5.03125 L 19.046875 -2.546875 C 17.347656 -0.847656 15.425781 0 13.28125 0 C 12.382812 0 11.503906 -0.15625 10.640625 -0.46875 C 9.773438 -0.78125 9.003906 -1.253906 8.328125 -1.890625 C 7.648438 -2.535156 7.101562 -3.359375 6.6875 -4.359375 C 6.28125 -5.359375 6.078125 -6.535156 6.078125 -7.890625 L 6.078125 -23.875 Z M 1.5625 -23.875 "/></g></g></g><g fill="#025492" fill-opacity="1"><g transform="translate(496.404203, 577.710283)"><g><path d="M 1.5625 -23.875 L 1.5625 -25.953125 L 6.078125 -25.953125 L 6.078125 -33.953125 L 10.484375 -33.953125 L 10.484375 -25.953125 L 16.765625 -25.953125 L 16.765625 -23.875 L 10.484375 -23.875 L 10.484375 -6.640625 C 10.484375 -6.222656 10.5 -5.742188 10.53125 -5.203125 C 10.570312 -4.671875 10.675781 -4.171875 10.84375 -3.703125 C 11.019531 -3.242188 11.289062 -2.859375 11.65625 -2.546875 C 12.019531 -2.234375 12.53125 -2.078125 13.1875 -2.078125 C 14.019531 -2.078125 14.710938 -2.382812 15.265625 -3 C 15.816406 -3.625 16.265625 -4.300781 16.609375 -5.03125 L 19.046875 -2.546875 C 17.347656 -0.847656 15.425781 0 13.28125 0 C 12.382812 0 11.503906 -0.15625 10.640625 -0.46875 C 9.773438 -0.78125 9.003906 -1.253906 8.328125 -1.890625 C 7.648438 -2.535156 7.101562 -3.359375 6.6875 -4.359375 C 6.28125 -5.359375 6.078125 -6.535156 6.078125 -7.890625 L 6.078125 -23.875 Z M 1.5625 -23.875 "/></g></g></g><g fill="#025492" fill-opacity="1"><g transform="translate(523.342953, 577.710283)"><g><path d="M 27.203125 -11.828125 L 27.203125 -12.921875 C 27.203125 -15.242188 26.867188 -17.25 26.203125 -18.9375 C 25.546875 -20.632812 24.65625 -22.035156 23.53125 -23.140625 C 22.414062 -24.253906 21.113281 -25.085938 19.625 -25.640625 C 18.132812 -26.191406 16.554688 -26.46875 14.890625 -26.46875 C 13.128906 -26.46875 11.503906 -26.164062 10.015625 -25.5625 C 8.523438 -24.957031 7.226562 -24.070312 6.125 -22.90625 C 5.019531 -21.75 4.15625 -20.347656 3.53125 -18.703125 C 2.90625 -17.066406 2.59375 -15.207031 2.59375 -13.125 C 2.59375 -11.394531 2.859375 -9.707031 3.390625 -8.0625 C 3.929688 -6.425781 4.742188 -4.957031 5.828125 -3.65625 C 6.921875 -2.363281 8.304688 -1.328125 9.984375 -0.546875 C 11.671875 0.234375 13.65625 0.625 15.9375 0.625 C 18.144531 0.625 20.179688 0.234375 22.046875 -0.546875 C 23.921875 -1.328125 25.550781 -2.441406 26.9375 -3.890625 L 25.28125 -5.546875 C 24.550781 -4.929688 23.863281 -4.363281 23.21875 -3.84375 C 22.582031 -3.320312 21.9375 -2.890625 21.28125 -2.546875 C 20.625 -2.203125 19.941406 -1.929688 19.234375 -1.734375 C 18.523438 -1.546875 17.738281 -1.453125 16.875 -1.453125 C 15.90625 -1.453125 14.875 -1.597656 13.78125 -1.890625 C 12.6875 -2.179688 11.671875 -2.707031 10.734375 -3.46875 C 9.804688 -4.238281 9.03125 -5.296875 8.40625 -6.640625 C 7.78125 -7.992188 7.46875 -9.722656 7.46875 -11.828125 Z M 7.46875 -13.90625 C 7.46875 -15.289062 7.613281 -16.628906 7.90625 -17.921875 C 8.207031 -19.222656 8.660156 -20.375 9.265625 -21.375 C 9.867188 -22.382812 10.640625 -23.191406 11.578125 -23.796875 C 12.515625 -24.398438 13.617188 -24.703125 14.890625 -24.703125 C 17.347656 -24.703125 19.257812 -23.742188 20.625 -21.828125 C 22 -19.910156 22.6875 -17.269531 22.6875 -13.90625 Z M 7.46875 -13.90625 "/></g></g></g><g fill="#025492" fill-opacity="1"><g transform="translate(560.61027, 577.710283)"><g><path d="M 4.15625 -25.953125 L 4.15625 0 L 8.5625 0 L 8.5625 -15.671875 C 8.5625 -17.085938 8.722656 -18.289062 9.046875 -19.28125 C 9.378906 -20.269531 9.804688 -21.070312 10.328125 -21.6875 C 10.847656 -22.3125 11.421875 -22.765625 12.046875 -23.046875 C 12.671875 -23.328125 13.273438 -23.46875 13.859375 -23.46875 C 14.648438 -23.46875 15.382812 -23.207031 16.0625 -22.6875 C 16.738281 -22.164062 17.234375 -21.679688 17.546875 -21.234375 L 19.3125 -24.453125 C 19 -24.867188 18.625 -25.210938 18.1875 -25.484375 C 17.757812 -25.765625 17.328125 -25.984375 16.890625 -26.140625 C 16.460938 -26.296875 16.066406 -26.398438 15.703125 -26.453125 C 15.335938 -26.503906 15.066406 -26.53125 14.890625 -26.53125 C 13.441406 -26.53125 12.234375 -26.128906 11.265625 -25.328125 C 10.296875 -24.535156 9.5 -23.359375 8.875 -21.796875 L 8.5625 -21.796875 L 8.5625 -25.953125 Z M 4.15625 -25.953125 "/></g></g></g><g fill="#025492" fill-opacity="1"><g transform="translate(587.912347, 577.710283)"><g/></g></g><g fill="#025492" fill-opacity="1"><g transform="translate(613.55352, 577.710283)"><g><path d="M 6.234375 -36.328125 L 6.234375 0 L 10.953125 0 L 10.953125 -18.0625 L 27.046875 -18.0625 L 27.046875 -20.453125 L 10.953125 -20.453125 L 10.953125 -33.484375 L 29.6875 -33.484375 L 29.6875 -36.328125 Z M 6.234375 -36.328125 "/></g></g></g><g fill="#025492" fill-opacity="1"><g transform="translate(652.274099, 577.710283)"><g><path d="M 4.15625 -25.953125 L 4.15625 -9.078125 C 4.15625 -8.460938 4.210938 -7.609375 4.328125 -6.515625 C 4.453125 -5.421875 4.804688 -4.347656 5.390625 -3.296875 C 5.984375 -2.242188 6.910156 -1.328125 8.171875 -0.546875 C 9.429688 0.234375 11.207031 0.625 13.5 0.625 C 14.5 0.65625 15.59375 0.453125 16.78125 0.015625 C 17.976562 -0.410156 19.1875 -1.226562 20.40625 -2.4375 L 21.234375 -3.265625 L 21.4375 -3.265625 L 21.4375 0 L 25.84375 0 L 25.84375 -25.953125 L 21.4375 -25.953125 L 21.4375 -9.859375 C 21.4375 -8.515625 21.242188 -7.359375 20.859375 -6.390625 C 20.484375 -5.421875 19.984375 -4.613281 19.359375 -3.96875 C 18.734375 -3.332031 18.003906 -2.859375 17.171875 -2.546875 C 16.347656 -2.234375 15.484375 -2.078125 14.578125 -2.078125 C 13.128906 -2.078125 12 -2.363281 11.1875 -2.9375 C 10.375 -3.507812 9.765625 -4.175781 9.359375 -4.9375 C 8.960938 -5.695312 8.726562 -6.445312 8.65625 -7.1875 C 8.59375 -7.9375 8.5625 -8.484375 8.5625 -8.828125 L 8.5625 -25.953125 Z M 4.15625 -25.953125 "/></g></g></g><g fill="#025492" fill-opacity="1"><g transform="translate(689.904743, 577.710283)"><g><path d="M 1.5625 -23.875 L 1.5625 -25.953125 L 6.078125 -25.953125 L 6.078125 -33.953125 L 10.484375 -33.953125 L 10.484375 -25.953125 L 16.765625 -25.953125 L 16.765625 -23.875 L 10.484375 -23.875 L 10.484375 -6.640625 C 10.484375 -6.222656 10.5 -5.742188 10.53125 -5.203125 C 10.570312 -4.671875 10.675781 -4.171875 10.84375 -3.703125 C 11.019531 -3.242188 11.289062 -2.859375 11.65625 -2.546875 C 12.019531 -2.234375 12.53125 -2.078125 13.1875 -2.078125 C 14.019531 -2.078125 14.710938 -2.382812 15.265625 -3 C 15.816406 -3.625 16.265625 -4.300781 16.609375 -5.03125 L 19.046875 -2.546875 C 17.347656 -0.847656 15.425781 0 13.28125 0 C 12.382812 0 11.503906 -0.15625 10.640625 -0.46875 C 9.773438 -0.78125 9.003906 -1.253906 8.328125 -1.890625 C 7.648438 -2.535156 7.101562 -3.359375 6.6875 -4.359375 C 6.28125 -5.359375 6.078125 -6.535156 6.078125 -7.890625 L 6.078125 -23.875 Z M 1.5625 -23.875 "/></g></g></g><g fill="#025492" fill-opacity="1"><g transform="translate(716.843493, 577.710283)"><g><path d="M 4.15625 -25.953125 L 4.15625 -9.078125 C 4.15625 -8.460938 4.210938 -7.609375 4.328125 -6.515625 C 4.453125 -5.421875 4.804688 -4.347656 5.390625 -3.296875 C 5.984375 -2.242188 6.910156 -1.328125 8.171875 -0.546875 C 9.429688 0.234375 11.207031 0.625 13.5 0.625 C 14.5 0.65625 15.59375 0.453125 16.78125 0.015625 C 17.976562 -0.410156 19.1875 -1.226562 20.40625 -2.4375 L 21.234375 -3.265625 L 21.4375 -3.265625 L 21.4375 0 L 25.84375 0 L 25.84375 -25.953125 L 21.4375 -25.953125 L 21.4375 -9.859375 C 21.4375 -8.515625 21.242188 -7.359375 20.859375 -6.390625 C 20.484375 -5.421875 19.984375 -4.613281 19.359375 -3.96875 C 18.734375 -3.332031 18.003906 -2.859375 17.171875 -2.546875 C 16.347656 -2.234375 15.484375 -2.078125 14.578125 -2.078125 C 13.128906 -2.078125 12 -2.363281 11.1875 -2.9375 C 10.375 -3.507812 9.765625 -4.175781 9.359375 -4.9375 C 8.960938 -5.695312 8.726562 -6.445312 8.65625 -7.1875 C 8.59375 -7.9375 8.5625 -8.484375 8.5625 -8.828125 L 8.5625 -25.953125 Z M 4.15625 -25.953125 "/></g></g></g><g fill="#025492" fill-opacity="1"><g transform="translate(754.474137, 577.710283)"><g><path d="M 4.15625 -25.953125 L 4.15625 0 L 8.5625 0 L 8.5625 -15.671875 C 8.5625 -17.085938 8.722656 -18.289062 9.046875 -19.28125 C 9.378906 -20.269531 9.804688 -21.070312 10.328125 -21.6875 C 10.847656 -22.3125 11.421875 -22.765625 12.046875 -23.046875 C 12.671875 -23.328125 13.273438 -23.46875 13.859375 -23.46875 C 14.648438 -23.46875 15.382812 -23.207031 16.0625 -22.6875 C 16.738281 -22.164062 17.234375 -21.679688 17.546875 -21.234375 L 19.3125 -24.453125 C 19 -24.867188 18.625 -25.210938 18.1875 -25.484375 C 17.757812 -25.765625 17.328125 -25.984375 16.890625 -26.140625 C 16.460938 -26.296875 16.066406 -26.398438 15.703125 -26.453125 C 15.335938 -26.503906 15.066406 -26.53125 14.890625 -26.53125 C 13.441406 -26.53125 12.234375 -26.128906 11.265625 -25.328125 C 10.296875 -24.535156 9.5 -23.359375 8.875 -21.796875 L 8.5625 -21.796875 L 8.5625 -25.953125 Z M 4.15625 -25.953125 "/></g></g></g><g fill="#025492" fill-opacity="1"><g transform="translate(781.776168, 577.710283)"><g><path d="M 27.203125 -11.828125 L 27.203125 -12.921875 C 27.203125 -15.242188 26.867188 -17.25 26.203125 -18.9375 C 25.546875 -20.632812 24.65625 -22.035156 23.53125 -23.140625 C 22.414062 -24.253906 21.113281 -25.085938 19.625 -25.640625 C 18.132812 -26.191406 16.554688 -26.46875 14.890625 -26.46875 C 13.128906 -26.46875 11.503906 -26.164062 10.015625 -25.5625 C 8.523438 -24.957031 7.226562 -24.070312 6.125 -22.90625 C 5.019531 -21.75 4.15625 -20.347656 3.53125 -18.703125 C 2.90625 -17.066406 2.59375 -15.207031 2.59375 -13.125 C 2.59375 -11.394531 2.859375 -9.707031 3.390625 -8.0625 C 3.929688 -6.425781 4.742188 -4.957031 5.828125 -3.65625 C 6.921875 -2.363281 8.304688 -1.328125 9.984375 -0.546875 C 11.671875 0.234375 13.65625 0.625 15.9375 0.625 C 18.144531 0.625 20.179688 0.234375 22.046875 -0.546875 C 23.921875 -1.328125 25.550781 -2.441406 26.9375 -3.890625 L 25.28125 -5.546875 C 24.550781 -4.929688 23.863281 -4.363281 23.21875 -3.84375 C 22.582031 -3.320312 21.9375 -2.890625 21.28125 -2.546875 C 20.625 -2.203125 19.941406 -1.929688 19.234375 -1.734375 C 18.523438 -1.546875 17.738281 -1.453125 16.875 -1.453125 C 15.90625 -1.453125 14.875 -1.597656 13.78125 -1.890625 C 12.6875 -2.179688 11.671875 -2.707031 10.734375 -3.46875 C 9.804688 -4.238281 9.03125 -5.296875 8.40625 -6.640625 C 7.78125 -7.992188 7.46875 -9.722656 7.46875 -11.828125 Z M 7.46875 -13.90625 C 7.46875 -15.289062 7.613281 -16.628906 7.90625 -17.921875 C 8.207031 -19.222656 8.660156 -20.375 9.265625 -21.375 C 9.867188 -22.382812 10.640625 -23.191406 11.578125 -23.796875 C 12.515625 -24.398438 13.617188 -24.703125 14.890625 -24.703125 C 17.347656 -24.703125 19.257812 -23.742188 20.625 -21.828125 C 22 -19.910156 22.6875 -17.269531 22.6875 -13.90625 Z M 7.46875 -13.90625 "/></g></g></g></svg>